#include "../../hUGEDriver.h"
#include <stddef.h>

static const unsigned char order_cnt = 48;

static const unsigned char P0[] = {
    DN(___,0,0xC00),
    DN(___,0,0x000),
    DN(___,0,0x000),
    DN(___,0,0x000),
    DN(___,0,0x000),
    DN(___,0,0x000),
    DN(___,0,0x000),
    DN(___,0,0x8FE),
    DN(B_4,1,0xC05),
    DN(E_5,1,0xC05),
    DN(G_5,2,0xC05),
    DN(B_4,2,0xC05),
    DN(E_5,3,0xC05),
    DN(G_5,3,0xC05),
    DN(B_4,4,0xC05),
    DN(E_5,4,0xC05),
    DN(G_5,3,0xC05),
    DN(B_4,3,0xC05),
    DN(E_5,2,0xC05),
    DN(G_5,2,0xC05),
    DN(B_4,1,0xC05),
    DN(E_5,1,0xC05),
    DN(G_5,2,0xC05),
    DN(B_4,2,0xC05),
    DN(B_4,1,0xC05),
    DN(E_5,1,0xC05),
    DN(G_5,2,0xC05),
    DN(B_4,2,0xC05),
    DN(E_5,3,0xC05),
    DN(G_5,3,0xC05),
    DN(B_4,4,0xC05),
    DN(E_5,4,0xC05),
    DN(G_5,3,0xC05),
    DN(B_4,3,0xC05),
    DN(E_5,2,0xC05),
    DN(G_5,2,0xC05),
    DN(B_4,1,0xC05),
    DN(E_5,1,0xC05),
    DN(G_5,2,0xC05),
    DN(B_4,2,0xC05),
    DN(A_4,1,0xC05),
    DN(D_5,1,0xC05),
    DN(Fs5,2,0xC05),
    DN(A_4,2,0xC05),
    DN(D_5,3,0xC05),
    DN(Fs5,3,0xC05),
    DN(A_4,4,0xC05),
    DN(D_5,4,0xC05),
    DN(Fs5,3,0xC05),
    DN(A_4,3,0xC05),
    DN(D_5,2,0xC05),
    DN(Fs5,2,0xC05),
    DN(A_4,1,0xC05),
    DN(D_5,1,0xC05),
    DN(Fs5,2,0xC05),
    DN(A_4,2,0xC05),
    DN(B_4,2,0xC05),
    DN(A_4,1,0xC05),
    DN(D_5,1,0xC05),
    DN(Fs5,2,0xC05),
    DN(A_4,2,0xC05),
    DN(D_5,3,0xC05),
    DN(Fs5,3,0xC05),
    DN(A_4,4,0xC05),
};
static const unsigned char P1[] = {
    DN(B_4,1,0xC0F),
    DN(E_5,1,0xC0D),
    DN(G_5,2,0xC0B),
    DN(B_4,2,0xC0F),
    DN(E_5,3,0xC0D),
    DN(G_5,3,0xC0B),
    DN(B_4,4,0xC0F),
    DN(E_5,4,0xC0D),
    DN(G_5,3,0xC0B),
    DN(B_4,3,0xC09),
    DN(E_5,2,0xC07),
    DN(G_5,2,0xC06),
    DN(B_4,1,0xC0F),
    DN(E_5,1,0xC0D),
    DN(G_5,2,0xC0B),
    DN(B_4,2,0xC09),
    DN(B_4,1,0xC0F),
    DN(E_5,1,0xC0D),
    DN(G_5,2,0xC0B),
    DN(B_4,2,0xC0F),
    DN(E_5,3,0xC0D),
    DN(G_5,3,0xC0B),
    DN(B_4,4,0xC0F),
    DN(E_5,4,0xC0D),
    DN(G_5,3,0xC0B),
    DN(B_4,3,0xC09),
    DN(E_5,2,0xC07),
    DN(G_5,2,0xC06),
    DN(B_4,1,0xC0F),
    DN(E_5,1,0xC0D),
    DN(G_5,2,0xC0B),
    DN(B_4,2,0xC09),
    DN(A_4,1,0xC0F),
    DN(D_5,1,0xC0D),
    DN(Fs5,2,0xC0B),
    DN(A_4,2,0xC0F),
    DN(D_5,3,0xC0D),
    DN(Fs5,3,0xC0B),
    DN(A_4,4,0xC0F),
    DN(D_5,4,0xC0D),
    DN(Fs5,3,0xC0B),
    DN(A_4,3,0xC09),
    DN(D_5,2,0xC07),
    DN(Fs5,2,0xC06),
    DN(A_4,1,0xC0F),
    DN(D_5,1,0xC0D),
    DN(Fs5,2,0xC0B),
    DN(A_4,2,0xC09),
    DN(B_4,2,0xC0F),
    DN(A_4,1,0xC0D),
    DN(D_5,1,0xC0B),
    DN(Fs5,2,0xC0F),
    DN(A_4,2,0xC0D),
    DN(D_5,3,0xC0B),
    DN(Fs5,3,0xC0F),
    DN(A_4,4,0xC0D),
    DN(D_5,4,0xC0B),
    DN(Fs5,3,0xC09),
    DN(A_4,3,0xC07),
    DN(D_5,2,0xC06),
    DN(Fs5,2,0xC0F),
    DN(A_4,1,0xC0D),
    DN(D_5,1,0xC0B),
    DN(Fs5,2,0xC09),
};
static const unsigned char P2[] = {
    DN(C_6,3,0x2CC),
    DN(E_3,7,0x000),
    DN(___,0,0x000),
    DN(___,0,0xC00),
    DN(E_3,7,0x000),
    DN(___,0,0x000),
    DN(___,0,0x000),
    DN(___,0,0xC00),
    DN(E_3,15,0x000),
    DN(___,0,0x000),
    DN(___,0,0x000),
    DN(___,0,0xC00),
    DN(C_6,3,0x2CC),
    DN(E_3,7,0x000),
    DN(___,0,0x000),
    DN(___,0,0xC00),
    DN(E_3,7,0x000),
    DN(___,0,0x000),
    DN(___,0,0x000),
    DN(___,0,0xC00),
    DN(C_6,3,0x2CC),
    DN(E_3,15,0x000),
    DN(___,0,0x000),
    DN(___,0,0xC00),
    DN(E_3,7,0x000),
    DN(___,0,0x000),
    DN(___,0,0x000),
    DN(___,0,0xC00),
    DN(C_6,3,0x2CC),
    DN(E_3,7,0x000),
    DN(___,0,0x000),
    DN(___,0,0xC00),
    DN(C_6,3,0x2CC),
    DN(E_3,7,0x000),
    DN(___,0,0x000),
    DN(___,0,0xC00),
    DN(E_3,7,0x000),
    DN(___,0,0x000),
    DN(___,0,0x000),
    DN(___,0,0xC00),
    DN(E_3,15,0x000),
    DN(___,0,0x000),
    DN(___,0,0x000),
    DN(___,0,0xC00),
    DN(C_6,3,0x2CC),
    DN(E_3,7,0x000),
    DN(___,0,0x000),
    DN(___,0,0xC00),
    DN(E_3,7,0x000),
    DN(___,0,0x000),
    DN(___,0,0x000),
    DN(___,0,0xC00),
    DN(C_6,3,0x2CC),
    DN(E_3,15,0x000),
    DN(___,0,0x000),
    DN(___,0,0xC00),
    DN(E_3,7,0x000),
    DN(___,0,0x000),
    DN(___,0,0x000),
    DN(___,0,0xC00),
    DN(C_6,3,0x2CC),
    DN(E_3,15,0x000),
    DN(___,0,0x000),
    DN(___,0,0xC00),
};
static const unsigned char P3[] = {
    DN(C_5,2,0xF03),
    DN(___,0,0x000),
    DN(___,0,0x000),
    DN(___,0,0x000),
    DN(C_5,1,0x000),
    DN(___,0,0x000),
    DN(___,0,0x000),
    DN(___,0,0x000),
    DN(C_5,1,0x000),
    DN(___,0,0x000),
    DN(___,0,0x000),
    DN(___,0,0x000),
    DN(C_5,1,0x000),
    DN(___,0,0x000),
    DN(___,0,0x000),
    DN(___,0,0x000),
    DN(C_5,1,0x000),
    DN(___,0,0x000),
    DN(___,0,0x000),
    DN(___,0,0x000),
    DN(C_5,2,0x000),
    DN(___,0,0x000),
    DN(___,0,0x000),
    DN(___,0,0x000),
    DN(C_5,1,0x000),
    DN(___,0,0x000),
    DN(___,0,0x000),
    DN(___,0,0x000),
    DN(C_5,2,0x000),
    DN(___,0,0x000),
    DN(___,0,0x000),
    DN(___,0,0x000),
    DN(C_5,2,0x000),
    DN(___,0,0x000),
    DN(___,0,0x000),
    DN(___,0,0x000),
    DN(C_5,1,0x000),
    DN(___,0,0x000),
    DN(___,0,0x000),
    DN(___,0,0x000),
    DN(C_5,1,0x000),
    DN(___,0,0x000),
    DN(___,0,0x000),
    DN(___,0,0x000),
    DN(C_5,1,0x000),
    DN(___,0,0x000),
    DN(___,0,0x000),
    DN(___,0,0x000),
    DN(C_5,1,0x000),
    DN(___,0,0x000),
    DN(___,0,0x000),
    DN(___,0,0x000),
    DN(C_5,2,0x000),
    DN(___,0,0x000),
    DN(___,0,0x000),
    DN(___,0,0x000),
    DN(C_5,1,0x000),
    DN(___,0,0x000),
    DN(___,0,0x000),
    DN(___,0,0x000),
    DN(C_5,2,0x000),
    DN(___,0,0x000),
    DN(___,0,0x000),
    DN(___,0,0x000),
};
static const unsigned char P4[] = {
    DN(D_5,4,0xC05),
    DN(Fs5,3,0xC05),
    DN(A_4,3,0xC05),
    DN(D_5,2,0xC05),
    DN(Fs5,2,0xC05),
    DN(A_4,1,0xC05),
    DN(D_5,1,0xC05),
    DN(Fs5,2,0xC05),
    DN(B_4,1,0xC05),
    DN(D_5,1,0xC05),
    DN(Fs5,2,0xC05),
    DN(B_4,2,0xC05),
    DN(D_5,3,0xC05),
    DN(Fs5,3,0xC05),
    DN(B_4,4,0xC05),
    DN(D_5,4,0xC05),
    DN(Fs5,3,0xC05),
    DN(B_4,3,0xC05),
    DN(D_5,2,0xC05),
    DN(Fs5,2,0xC05),
    DN(B_4,1,0xC05),
    DN(D_5,1,0xC05),
    DN(Fs5,2,0xC05),
    DN(B_4,2,0xC05),
    DN(D_5,1,0xC05),
    DN(Fs5,1,0xC05),
    DN(B_4,2,0xC05),
    DN(D_5,2,0xC05),
    DN(Fs5,3,0xC05),
    DN(B_4,3,0xC05),
    DN(D_5,4,0xC05),
    DN(Fs5,4,0xC05),
    DN(B_4,3,0xC05),
    DN(D_5,3,0xC05),
    DN(Fs5,2,0xC05),
    DN(B_4,2,0xC05),
    DN(D_5,1,0xC05),
    DN(Fs5,1,0xC05),
    DN(B_4,2,0xC05),
    DN(D_5,2,0xC05),
    DN(D_5,1,0xC05),
    DN(Fs5,1,0xC05),
    DN(A_5,2,0xC05),
    DN(D_5,2,0xC05),
    DN(Fs5,3,0xC05),
    DN(A_5,3,0xC05),
    DN(D_5,4,0xC05),
    DN(Fs5,4,0xC05),
    DN(A_5,3,0xC05),
    DN(D_5,3,0xC05),
    DN(Fs5,2,0xC05),
    DN(A_5,2,0xC05),
    DN(D_5,1,0xC05),
    DN(Fs5,1,0xC05),
    DN(A_5,2,0xC05),
    DN(D_5,2,0xC05),
    DN(Fs5,2,0xC05),
    DN(A_5,1,0xC05),
    DN(D_5,1,0xC05),
    DN(Fs5,2,0xC05),
    DN(A_5,2,0xC05),
    DN(D_5,3,0xC05),
    DN(Fs5,3,0xC05),
    DN(A_5,4,0xC05),
};
static const unsigned char P5[] = {
    DN(B_4,1,0xC0F),
    DN(D_5,1,0xC0D),
    DN(Fs5,2,0xC0B),
    DN(B_4,2,0xC0F),
    DN(D_5,3,0xC0D),
    DN(Fs5,3,0xC0B),
    DN(B_4,4,0xC0F),
    DN(D_5,4,0xC0D),
    DN(Fs5,3,0xC0B),
    DN(B_4,3,0xC09),
    DN(D_5,2,0xC07),
    DN(Fs5,2,0xC06),
    DN(B_4,1,0xC0F),
    DN(D_5,1,0xC0D),
    DN(Fs5,2,0xC0B),
    DN(B_4,2,0xC09),
    DN(D_5,1,0xC0F),
    DN(Fs5,1,0xC0D),
    DN(B_4,2,0xC0B),
    DN(D_5,2,0xC0F),
    DN(Fs5,3,0xC0D),
    DN(B_4,3,0xC0B),
    DN(D_5,4,0xC0F),
    DN(Fs5,4,0xC0D),
    DN(B_4,3,0xC0B),
    DN(D_5,3,0xC09),
    DN(Fs5,2,0xC07),
    DN(B_4,2,0xC06),
    DN(D_5,1,0xC0F),
    DN(Fs5,1,0xC0D),
    DN(B_4,2,0xC0B),
    DN(D_5,2,0xC09),
    DN(D_5,1,0xC0F),
    DN(Fs5,1,0xC0D),
    DN(A_5,2,0xC0B),
    DN(D_5,2,0xC0F),
    DN(Fs5,3,0xC0D),
    DN(A_5,3,0xC0B),
    DN(D_5,4,0xC0F),
    DN(Fs5,4,0xC0D),
    DN(A_5,3,0xC0B),
    DN(D_5,3,0xC09),
    DN(Fs5,2,0xC07),
    DN(A_5,2,0xC06),
    DN(D_5,1,0xC0F),
    DN(Fs5,1,0xC0D),
    DN(A_5,2,0xC0B),
    DN(D_5,2,0xC09),
    DN(Fs5,2,0xC0F),
    DN(A_5,1,0xC0D),
    DN(D_5,1,0xC0B),
    DN(Fs5,2,0xC0F),
    DN(A_5,2,0xC0D),
    DN(D_5,3,0xC0B),
    DN(Fs5,3,0xC0F),
    DN(A_5,4,0xC0D),
    DN(D_5,4,0xC0B),
    DN(Fs5,3,0xC09),
    DN(A_5,3,0xC07),
    DN(D_5,2,0xC06),
    DN(Fs5,2,0xC0F),
    DN(A_5,1,0xC0D),
    DN(D_5,1,0xC0B),
    DN(Fs5,2,0xC09),
};
static const unsigned char P6[] = {
    DN(C_6,3,0x2CC),
    DN(E_3,7,0x000),
    DN(___,0,0x000),
    DN(___,0,0xC00),
    DN(E_3,7,0x000),
    DN(___,0,0x000),
    DN(___,0,0x000),
    DN(___,0,0xC00),
    DN(E_3,15,0x000),
    DN(___,0,0x000),
    DN(___,0,0x000),
    DN(___,0,0xC00),
    DN(C_6,3,0x2CC),
    DN(E_3,7,0x000),
    DN(___,0,0x000),
    DN(___,0,0xC00),
    DN(E_3,7,0x000),
    DN(___,0,0x000),
    DN(___,0,0x000),
    DN(___,0,0xC00),
    DN(C_6,3,0x2CC),
    DN(E_3,7,0x000),
    DN(___,0,0x000),
    DN(___,0,0xC00),
    DN(E_3,7,0x000),
    DN(___,0,0x000),
    DN(___,0,0x000),
    DN(___,0,0xC00),
    DN(C_6,3,0x2CC),
    DN(E_3,7,0x000),
    DN(___,0,0x000),
    DN(___,0,0xC00),
    DN(C_6,3,0x2CC),
    DN(D_3,7,0x000),
    DN(___,0,0x000),
    DN(___,0,0xC00),
    DN(D_3,7,0x000),
    DN(___,0,0x000),
    DN(___,0,0x000),
    DN(___,0,0xC00),
    DN(D_3,15,0x000),
    DN(___,0,0x000),
    DN(___,0,0x000),
    DN(___,0,0xC00),
    DN(C_6,3,0x2CC),
    DN(D_3,7,0x000),
    DN(___,0,0x000),
    DN(___,0,0xC00),
    DN(D_3,7,0x000),
    DN(___,0,0x000),
    DN(___,0,0x000),
    DN(___,0,0xC00),
    DN(C_6,3,0x2CC),
    DN(D_3,7,0x000),
    DN(___,0,0x000),
    DN(___,0,0xC00),
    DN(D_3,7,0x000),
    DN(___,0,0x000),
    DN(___,0,0x000),
    DN(___,0,0xC00),
    DN(C_6,3,0x2CC),
    DN(D_3,7,0x000),
    DN(___,0,0x000),
    DN(___,0,0xC00),
};
static const unsigned char P7[] = {
    DN(C_5,2,0xF03),
    DN(___,0,0x000),
    DN(___,0,0x000),
    DN(___,0,0x000),
    DN(C_5,1,0x000),
    DN(___,0,0x000),
    DN(___,0,0x000),
    DN(___,0,0x000),
    DN(C_5,1,0x000),
    DN(___,0,0x000),
    DN(___,0,0x000),
    DN(___,0,0x000),
    DN(C_5,1,0x000),
    DN(___,0,0x000),
    DN(___,0,0x000),
    DN(___,0,0x000),
    DN(C_5,1,0x000),
    DN(___,0,0x000),
    DN(___,0,0x000),
    DN(___,0,0x000),
    DN(C_5,2,0x000),
    DN(___,0,0x000),
    DN(___,0,0x000),
    DN(___,0,0x000),
    DN(C_5,1,0x000),
    DN(___,0,0x000),
    DN(___,0,0x000),
    DN(___,0,0x000),
    DN(C_5,2,0x000),
    DN(___,0,0x000),
    DN(___,0,0x000),
    DN(___,0,0x000),
    DN(C_5,2,0x000),
    DN(___,0,0x000),
    DN(___,0,0x000),
    DN(___,0,0x000),
    DN(C_5,1,0x000),
    DN(___,0,0x000),
    DN(___,0,0x000),
    DN(___,0,0x000),
    DN(C_5,1,0x000),
    DN(___,0,0x000),
    DN(___,0,0x000),
    DN(___,0,0x000),
    DN(C_5,1,0x000),
    DN(___,0,0x000),
    DN(___,0,0x000),
    DN(___,0,0x000),
    DN(C_5,3,0x000),
    DN(___,0,0x000),
    DN(C_5,3,0x000),
    DN(___,0,0x000),
    DN(C_5,3,0x000),
    DN(___,0,0x000),
    DN(C_5,4,0x000),
    DN(___,0,0x000),
    DN(C_5,3,0x000),
    DN(___,0,0x000),
    DN(___,0,0x000),
    DN(___,0,0x000),
    DN(C_5,4,0x000),
    DN(___,0,0x000),
    DN(___,0,0x000),
    DN(___,0,0x000),
};
static const unsigned char P8[] = {
    DN(D_5,4,0xC05),
    DN(Fs5,3,0xC05),
    DN(A_5,3,0xC05),
    DN(D_5,2,0xC05),
    DN(Fs5,2,0xC05),
    DN(A_5,1,0xC05),
    DN(D_5,1,0xC05),
    DN(Fs5,2,0xC05),
    DN(B_4,1,0xC05),
    DN(E_5,1,0xC05),
    DN(G_5,2,0xC05),
    DN(B_4,2,0xC05),
    DN(E_5,3,0xC05),
    DN(G_5,3,0xC05),
    DN(B_4,4,0xC05),
    DN(E_5,4,0xC05),
    DN(G_5,3,0xC05),
    DN(B_4,3,0xC05),
    DN(E_5,2,0xC05),
    DN(G_5,2,0xC05),
    DN(B_4,1,0xC05),
    DN(E_5,1,0xC05),
    DN(G_5,2,0xC05),
    DN(B_4,2,0xC05),
    DN(B_4,1,0xC05),
    DN(E_5,1,0xC05),
    DN(G_5,2,0xC05),
    DN(B_4,2,0xC05),
    DN(E_5,3,0xC05),
    DN(G_5,3,0xC05),
    DN(B_4,4,0xC05),
    DN(E_5,4,0xC05),
    DN(G_5,3,0xC05),
    DN(B_4,3,0xC05),
    DN(E_5,2,0xC05),
    DN(G_5,2,0xC05),
    DN(B_4,1,0xC05),
    DN(E_5,1,0xC05),
    DN(G_5,2,0xC05),
    DN(B_4,2,0xC05),
    DN(E_5,1,0xC05),
    DN(G_5,1,0xC05),
    DN(C_6,2,0xC05),
    DN(E_5,2,0xC05),
    DN(G_5,3,0xC05),
    DN(C_6,3,0xC05),
    DN(E_5,4,0xC05),
    DN(G_5,4,0xC05),
    DN(C_6,3,0xC05),
    DN(E_5,3,0xC05),
    DN(G_5,2,0xC05),
    DN(C_6,2,0xC05),
    DN(E_5,1,0xC05),
    DN(G_5,1,0xC05),
    DN(C_6,2,0xC05),
    DN(E_5,2,0xC05),
    DN(G_5,2,0xC05),
    DN(C_6,1,0xC05),
    DN(E_5,1,0xC05),
    DN(G_5,2,0xC05),
    DN(C_6,2,0xC05),
    DN(E_5,3,0xC05),
    DN(G_5,3,0xC05),
    DN(C_6,4,0xC05),
};
static const unsigned char P9[] = {
    DN(B_4,1,0xC0F),
    DN(E_5,1,0xC0D),
    DN(G_5,2,0xC0B),
    DN(B_4,2,0xC0F),
    DN(E_5,3,0xC0D),
    DN(G_5,3,0xC0B),
    DN(B_4,4,0xC0F),
    DN(E_5,4,0xC0D),
    DN(G_5,3,0xC0B),
    DN(B_4,3,0xC09),
    DN(E_5,2,0xC07),
    DN(G_5,2,0xC06),
    DN(B_4,1,0xC0F),
    DN(E_5,1,0xC0D),
    DN(G_5,2,0xC0B),
    DN(B_4,2,0xC09),
    DN(B_4,1,0xC0F),
    DN(E_5,1,0xC0D),
    DN(G_5,2,0xC0B),
    DN(B_4,2,0xC0F),
    DN(E_5,3,0xC0D),
    DN(G_5,3,0xC0B),
    DN(B_4,4,0xC0F),
    DN(E_5,4,0xC0D),
    DN(G_5,3,0xC0B),
    DN(B_4,3,0xC09),
    DN(E_5,2,0xC07),
    DN(G_5,2,0xC06),
    DN(B_4,1,0xC0F),
    DN(E_5,1,0xC0D),
    DN(G_5,2,0xC0B),
    DN(B_4,2,0xC09),
    DN(E_5,1,0xC0F),
    DN(G_5,1,0xC0D),
    DN(C_6,2,0xC0B),
    DN(E_5,2,0xC0F),
    DN(G_5,3,0xC0D),
    DN(C_6,3,0xC0B),
    DN(E_5,4,0xC0F),
    DN(G_5,4,0xC0D),
    DN(C_6,3,0xC0B),
    DN(E_5,3,0xC09),
    DN(G_5,2,0xC07),
    DN(C_6,2,0xC06),
    DN(E_5,1,0xC0F),
    DN(G_5,1,0xC0D),
    DN(C_6,2,0xC0B),
    DN(E_5,2,0xC09),
    DN(G_5,2,0xC0F),
    DN(C_6,1,0xC0D),
    DN(E_5,1,0xC0B),
    DN(G_5,2,0xC0F),
    DN(C_6,2,0xC0D),
    DN(E_5,3,0xC0B),
    DN(G_5,3,0xC0F),
    DN(C_6,4,0xC0D),
    DN(E_5,4,0xC0B),
    DN(G_5,3,0xC09),
    DN(C_6,3,0xC07),
    DN(E_5,2,0xC06),
    DN(G_5,2,0xC0F),
    DN(C_6,1,0xC0D),
    DN(E_5,1,0xC0B),
    DN(G_5,2,0xC09),
};
static const unsigned char P10[] = {
    DN(E_5,4,0xC05),
    DN(G_5,3,0xC05),
    DN(C_6,3,0xC05),
    DN(E_5,2,0xC05),
    DN(G_5,2,0xC05),
    DN(C_6,1,0xC05),
    DN(E_5,1,0xC05),
    DN(G_5,2,0xC05),
    DN(B_4,1,0xC05),
    DN(D_5,1,0xC05),
    DN(Fs5,2,0xC05),
    DN(B_4,2,0xC05),
    DN(D_5,3,0xC05),
    DN(Fs5,3,0xC05),
    DN(B_4,4,0xC05),
    DN(D_5,4,0xC05),
    DN(Fs5,3,0xC05),
    DN(B_4,3,0xC05),
    DN(D_5,2,0xC05),
    DN(Fs5,2,0xC05),
    DN(B_4,1,0xC05),
    DN(D_5,1,0xC05),
    DN(Fs5,2,0xC05),
    DN(B_4,2,0xC05),
    DN(D_5,1,0xC05),
    DN(Fs5,1,0xC05),
    DN(B_4,2,0xC05),
    DN(D_5,2,0xC05),
    DN(Fs5,3,0xC05),
    DN(B_4,3,0xC05),
    DN(D_5,4,0xC05),
    DN(Fs5,4,0xC05),
    DN(B_4,3,0xC05),
    DN(D_5,3,0xC05),
    DN(Fs5,2,0xC05),
    DN(B_4,2,0xC05),
    DN(D_5,1,0xC05),
    DN(Fs5,1,0xC05),
    DN(B_4,2,0xC05),
    DN(D_5,2,0xC05),
    DN(D_5,1,0xC05),
    DN(Fs5,1,0xC05),
    DN(A_5,2,0xC05),
    DN(D_5,2,0xC05),
    DN(Fs5,3,0xC05),
    DN(A_5,3,0xC05),
    DN(D_5,4,0xC05),
    DN(Fs5,4,0xC05),
    DN(A_5,3,0xC05),
    DN(D_5,3,0xC05),
    DN(Fs5,2,0xC05),
    DN(A_5,2,0xC05),
    DN(D_5,1,0xC05),
    DN(Fs5,1,0xC05),
    DN(A_5,2,0xC05),
    DN(D_5,2,0xC05),
    DN(Fs5,2,0xC05),
    DN(A_5,1,0xC05),
    DN(D_5,1,0xC05),
    DN(Fs5,2,0xC05),
    DN(A_5,2,0xC05),
    DN(D_5,3,0xC05),
    DN(Fs5,3,0xC05),
    DN(A_5,4,0xC05),
};
static const unsigned char P11[] = {
    DN(C_6,3,0x2CC),
    DN(E_3,7,0x000),
    DN(___,0,0x000),
    DN(___,0,0xC00),
    DN(E_3,7,0x000),
    DN(___,0,0x000),
    DN(___,0,0x000),
    DN(___,0,0xC00),
    DN(E_3,15,0x000),
    DN(___,0,0x000),
    DN(___,0,0x000),
    DN(___,0,0xC00),
    DN(C_6,3,0x2CC),
    DN(E_3,7,0x000),
    DN(___,0,0x000),
    DN(___,0,0xC00),
    DN(E_3,7,0x000),
    DN(___,0,0x000),
    DN(___,0,0x000),
    DN(___,0,0xC00),
    DN(C_6,3,0x2CC),
    DN(E_3,7,0x000),
    DN(___,0,0x000),
    DN(___,0,0xC00),
    DN(E_3,7,0x000),
    DN(___,0,0x000),
    DN(___,0,0x000),
    DN(___,0,0xC00),
    DN(C_6,3,0x2CC),
    DN(E_3,7,0x000),
    DN(___,0,0x000),
    DN(___,0,0xC00),
    DN(C_6,3,0x2CC),
    DN(D_3,7,0x000),
    DN(___,0,0x000),
    DN(___,0,0xC00),
    DN(D_3,7,0x000),
    DN(___,0,0x000),
    DN(___,0,0x000),
    DN(___,0,0xC00),
    DN(D_3,15,0x000),
    DN(___,0,0x000),
    DN(___,0,0x000),
    DN(___,0,0xC00),
    DN(C_6,3,0x2CC),
    DN(D_3,7,0x000),
    DN(___,0,0x000),
    DN(___,0,0xC00),
    DN(C_6,3,0x2CC),
    DN(D_3,7,0x000),
    DN(C_6,3,0x2CC),
    DN(___,0,0xC00),
    DN(C_6,3,0x2CC),
    DN(D_3,7,0x000),
    DN(C_6,3,0x2CC),
    DN(___,0,0xC00),
    DN(C_6,3,0x2CC),
    DN(D_3,7,0x000),
    DN(___,0,0x000),
    DN(___,0,0xC00),
    DN(C_6,3,0x2CC),
    DN(D_3,7,0x000),
    DN(___,0,0x000),
    DN(___,0,0xC00),
};
static const unsigned char P12[] = {
    DN(D_5,4,0xC05),
    DN(Fs5,3,0xC05),
    DN(A_5,3,0xC05),
    DN(D_5,2,0xC05),
    DN(Fs5,2,0xC05),
    DN(A_5,1,0xC05),
    DN(D_5,1,0xC05),
    DN(Fs5,2,0xC05),
    DN(B_4,1,0xC05),
    DN(E_5,1,0xC05),
    DN(G_5,2,0xC05),
    DN(B_4,2,0xC05),
    DN(E_5,3,0xC05),
    DN(G_5,3,0xC05),
    DN(B_4,4,0xC05),
    DN(E_5,4,0xC05),
    DN(G_5,3,0xC05),
    DN(B_4,3,0xC05),
    DN(E_5,2,0xC05),
    DN(G_5,2,0xC05),
    DN(B_4,1,0xC05),
    DN(E_5,1,0xC05),
    DN(G_5,2,0xC05),
    DN(B_4,2,0xC05),
    DN(B_4,1,0xC05),
    DN(E_5,1,0xC05),
    DN(G_5,2,0xC05),
    DN(B_4,2,0xC05),
    DN(E_5,3,0xC05),
    DN(G_5,3,0xC05),
    DN(B_4,4,0xC05),
    DN(E_5,4,0xC05),
    DN(G_5,3,0xC05),
    DN(B_4,3,0xC05),
    DN(E_5,2,0xC05),
    DN(G_5,2,0xC05),
    DN(B_4,1,0xC05),
    DN(E_5,1,0xC05),
    DN(G_5,2,0xC05),
    DN(B_4,2,0xC05),
    DN(B_4,1,0xC05),
    DN(E_5,1,0xC05),
    DN(G_5,2,0xC05),
    DN(B_4,2,0xC05),
    DN(E_5,3,0xC05),
    DN(G_5,3,0xC05),
    DN(B_4,4,0xC05),
    DN(E_5,4,0xC05),
    DN(G_5,3,0xC05),
    DN(B_4,3,0xC05),
    DN(E_5,2,0xC05),
    DN(G_5,2,0xC05),
    DN(B_4,1,0xC05),
    DN(E_5,1,0xC05),
    DN(G_5,2,0xC05),
    DN(B_4,2,0xC05),
    DN(B_4,1,0xC05),
    DN(E_5,1,0xC05),
    DN(G_5,2,0xC05),
    DN(B_4,2,0xC05),
    DN(E_5,3,0xC05),
    DN(G_5,3,0xC05),
    DN(B_4,4,0xC05),
    DN(E_5,4,0xC05),
};
static const unsigned char P13[] = {
    DN(B_4,1,0x8FF),
    DN(E_5,1,0x000),
    DN(G_5,2,0x000),
    DN(B_4,2,0x000),
    DN(E_5,3,0x000),
    DN(G_5,3,0x000),
    DN(B_4,4,0x000),
    DN(E_5,4,0x000),
    DN(G_5,3,0x000),
    DN(B_4,3,0x000),
    DN(E_5,2,0x000),
    DN(G_5,2,0x000),
    DN(B_4,1,0x000),
    DN(E_5,1,0x000),
    DN(G_5,2,0x000),
    DN(B_4,2,0x000),
    DN(B_4,1,0x000),
    DN(E_5,1,0x000),
    DN(G_5,2,0x000),
    DN(B_4,2,0x000),
    DN(E_5,3,0x000),
    DN(G_5,3,0x000),
    DN(B_4,4,0x000),
    DN(E_5,4,0x000),
    DN(G_5,3,0x000),
    DN(B_4,3,0x000),
    DN(E_5,2,0x000),
    DN(G_5,2,0x000),
    DN(B_4,1,0x000),
    DN(E_5,1,0x000),
    DN(G_5,2,0x000),
    DN(B_4,2,0x000),
    DN(B_4,1,0x000),
    DN(E_5,1,0x000),
    DN(G_5,2,0x000),
    DN(B_4,2,0x000),
    DN(E_5,3,0x000),
    DN(G_5,3,0x000),
    DN(B_4,4,0x000),
    DN(E_5,4,0x000),
    DN(G_5,3,0x000),
    DN(B_4,3,0x000),
    DN(E_5,2,0x000),
    DN(G_5,2,0x000),
    DN(B_4,1,0x000),
    DN(E_5,1,0x000),
    DN(G_5,2,0x000),
    DN(B_4,2,0x000),
    DN(B_4,1,0x000),
    DN(E_5,1,0x000),
    DN(G_5,2,0x000),
    DN(B_4,2,0x000),
    DN(E_5,3,0x000),
    DN(G_5,3,0x000),
    DN(B_4,4,0x000),
    DN(E_5,4,0x000),
    DN(G_5,3,0x000),
    DN(B_4,3,0x000),
    DN(E_5,2,0x000),
    DN(G_5,2,0x000),
    DN(B_4,2,0x000),
    DN(E_5,1,0x000),
    DN(G_5,1,0x000),
    DN(B_4,2,0x000),
};
static const unsigned char P14[] = {
    DN(C_6,3,0x2CC),
    DN(E_3,15,0x000),
    DN(___,0,0x000),
    DN(___,0,0xC00),
    DN(E_3,15,0x000),
    DN(___,0,0xC00),
    DN(E_3,15,0x000),
    DN(___,0,0xC00),
    DN(C_6,3,0x2CC),
    DN(E_4,15,0x000),
    DN(___,0,0x000),
    DN(___,0,0xC00),
    DN(E_3,15,0x000),
    DN(___,0,0x000),
    DN(___,0,0x000),
    DN(___,0,0xC00),
    DN(C_6,3,0x2CC),
    DN(E_3,15,0x000),
    DN(___,0,0x000),
    DN(___,0,0xC00),
    DN(E_4,15,0x000),
    DN(___,0,0x000),
    DN(___,0,0x000),
    DN(___,0,0xC00),
    DN(C_6,3,0x2CC),
    DN(E_3,15,0x000),
    DN(___,0,0x000),
    DN(___,0,0xC00),
    DN(E_4,15,0x000),
    DN(___,0,0x000),
    DN(___,0,0x000),
    DN(___,0,0xC00),
    DN(C_6,3,0x2CC),
    DN(E_3,15,0x000),
    DN(___,0,0x000),
    DN(___,0,0xC00),
    DN(E_3,15,0x000),
    DN(___,0,0x000),
    DN(___,0,0x000),
    DN(___,0,0xC00),
    DN(C_6,3,0x2CC),
    DN(E_4,15,0x000),
    DN(___,0,0x000),
    DN(___,0,0xC00),
    DN(E_3,15,0x000),
    DN(___,0,0x000),
    DN(___,0,0x000),
    DN(___,0,0xC00),
    DN(C_6,3,0x2CC),
    DN(E_3,15,0x000),
    DN(___,0,0x000),
    DN(___,0,0xC00),
    DN(E_3,15,0x000),
    DN(___,0,0xC00),
    DN(E_3,15,0x000),
    DN(___,0,0xC00),
    DN(C_6,3,0x2CC),
    DN(E_3,15,0x000),
    DN(___,0,0x000),
    DN(___,0,0xC00),
    DN(E_4,15,0x000),
    DN(___,0,0x000),
    DN(___,0,0x000),
    DN(___,0,0xC00),
};
static const unsigned char P15[] = {
    DN(C_5,5,0xF03),
    DN(___,0,0x000),
    DN(___,0,0x000),
    DN(___,0,0x000),
    DN(C_5,1,0x000),
    DN(___,0,0x000),
    DN(C_5,1,0x000),
    DN(___,0,0x000),
    DN(C_5,3,0x000),
    DN(___,0,0x000),
    DN(___,0,0x000),
    DN(___,0,0x000),
    DN(C_5,1,0x000),
    DN(___,0,0x000),
    DN(C_5,1,0x000),
    DN(___,0,0x000),
    DN(C_5,4,0x000),
    DN(___,0,0x000),
    DN(___,0,0x000),
    DN(___,0,0x000),
    DN(C_5,1,0x000),
    DN(___,0,0x000),
    DN(C_5,1,0x000),
    DN(___,0,0x000),
    DN(C_5,3,0x000),
    DN(___,0,0x000),
    DN(___,0,0x000),
    DN(___,0,0x000),
    DN(C_5,1,0x000),
    DN(___,0,0x000),
    DN(C_5,1,0x000),
    DN(___,0,0x000),
    DN(C_5,4,0x000),
    DN(___,0,0x000),
    DN(___,0,0x000),
    DN(___,0,0x000),
    DN(C_5,1,0x000),
    DN(___,0,0x000),
    DN(C_5,1,0x000),
    DN(___,0,0x000),
    DN(C_5,3,0x000),
    DN(___,0,0x000),
    DN(___,0,0x000),
    DN(___,0,0x000),
    DN(C_5,1,0x000),
    DN(___,0,0x000),
    DN(C_5,1,0x000),
    DN(___,0,0x000),
    DN(C_5,4,0x000),
    DN(___,0,0x000),
    DN(___,0,0x000),
    DN(___,0,0x000),
    DN(C_5,1,0x000),
    DN(___,0,0x000),
    DN(C_5,1,0x000),
    DN(___,0,0x000),
    DN(C_5,3,0x000),
    DN(___,0,0x000),
    DN(___,0,0x000),
    DN(___,0,0x000),
    DN(C_5,2,0x000),
    DN(___,0,0x000),
    DN(___,0,0x000),
    DN(___,0,0x000),
};
static const unsigned char P16[] = {
    DN(G_5,3,0xC05),
    DN(B_4,3,0xC05),
    DN(E_5,2,0xC05),
    DN(G_5,2,0xC05),
    DN(B_4,2,0xC05),
    DN(E_5,1,0xC05),
    DN(G_5,1,0xC05),
    DN(B_4,2,0xC05),
    DN(C_5,1,0xC05),
    DN(E_5,1,0xC05),
    DN(G_5,2,0xC05),
    DN(C_5,2,0xC05),
    DN(E_5,3,0xC05),
    DN(G_5,3,0xC05),
    DN(C_5,4,0xC05),
    DN(E_5,4,0xC05),
    DN(G_5,3,0xC05),
    DN(C_5,3,0xC05),
    DN(E_5,2,0xC05),
    DN(G_5,2,0xC05),
    DN(C_5,1,0xC05),
    DN(E_5,1,0xC05),
    DN(G_5,2,0xC05),
    DN(C_5,2,0xC05),
    DN(C_5,1,0xC05),
    DN(E_5,1,0xC05),
    DN(G_5,2,0xC05),
    DN(C_5,2,0xC05),
    DN(E_5,3,0xC05),
    DN(G_5,3,0xC05),
    DN(C_5,4,0xC05),
    DN(E_5,4,0xC05),
    DN(G_5,3,0xC05),
    DN(C_5,3,0xC05),
    DN(E_5,2,0xC05),
    DN(G_5,2,0xC05),
    DN(C_5,1,0xC05),
    DN(E_5,1,0xC05),
    DN(G_5,2,0xC05),
    DN(C_5,2,0xC05),
    DN(C_5,1,0xC05),
    DN(E_5,1,0xC05),
    DN(G_5,2,0xC05),
    DN(C_5,2,0xC05),
    DN(E_5,3,0xC05),
    DN(G_5,3,0xC05),
    DN(C_5,4,0xC05),
    DN(E_5,4,0xC05),
    DN(G_5,3,0xC05),
    DN(C_5,3,0xC05),
    DN(E_5,2,0xC05),
    DN(G_5,2,0xC05),
    DN(C_5,1,0xC05),
    DN(E_5,1,0xC05),
    DN(G_5,2,0xC05),
    DN(C_5,2,0xC05),
    DN(C_5,1,0xC05),
    DN(E_5,1,0xC05),
    DN(G_5,2,0xC05),
    DN(C_5,2,0xC05),
    DN(E_5,3,0xC05),
    DN(G_5,3,0xC05),
    DN(C_5,4,0xC05),
    DN(E_5,4,0xC05),
};
static const unsigned char P17[] = {
    DN(C_5,1,0x8FE),
    DN(E_5,1,0x000),
    DN(G_5,2,0x000),
    DN(C_5,2,0x000),
    DN(E_5,3,0x000),
    DN(G_5,3,0x000),
    DN(C_5,4,0x000),
    DN(E_5,4,0x000),
    DN(G_5,3,0x000),
    DN(C_5,3,0x000),
    DN(E_5,2,0x000),
    DN(G_5,2,0x000),
    DN(C_5,1,0x000),
    DN(E_5,1,0x000),
    DN(G_5,2,0x000),
    DN(C_5,2,0x000),
    DN(C_5,1,0x000),
    DN(E_5,1,0x000),
    DN(G_5,2,0x000),
    DN(C_5,2,0x000),
    DN(E_5,3,0x000),
    DN(G_5,3,0x000),
    DN(C_5,4,0x000),
    DN(E_5,4,0x000),
    DN(G_5,3,0x000),
    DN(C_5,3,0x000),
    DN(E_5,2,0x000),
    DN(G_5,2,0x000),
    DN(C_5,1,0x000),
    DN(E_5,1,0x000),
    DN(G_5,2,0x000),
    DN(C_5,2,0x000),
    DN(C_5,1,0x000),
    DN(E_5,1,0x000),
    DN(G_5,2,0x000),
    DN(C_5,2,0x000),
    DN(E_5,3,0x000),
    DN(G_5,3,0x000),
    DN(C_5,4,0x000),
    DN(E_5,4,0x000),
    DN(G_5,3,0x000),
    DN(C_5,3,0x000),
    DN(E_5,2,0x000),
    DN(G_5,2,0x000),
    DN(C_5,1,0x000),
    DN(E_5,1,0x000),
    DN(G_5,2,0x000),
    DN(C_5,2,0x000),
    DN(C_5,1,0x000),
    DN(E_5,1,0x000),
    DN(G_5,2,0x000),
    DN(C_5,2,0x000),
    DN(E_5,3,0x000),
    DN(G_5,3,0x000),
    DN(C_5,4,0x000),
    DN(E_5,4,0x000),
    DN(G_5,3,0x000),
    DN(C_5,3,0x000),
    DN(E_5,2,0x000),
    DN(G_5,2,0x000),
    DN(C_5,2,0x000),
    DN(E_5,1,0x000),
    DN(G_5,1,0x000),
    DN(C_5,2,0x000),
};
static const unsigned char P18[] = {
    DN(C_6,3,0x2CC),
    DN(C_3,15,0x000),
    DN(___,0,0x000),
    DN(___,0,0xC00),
    DN(C_3,15,0x000),
    DN(___,0,0xC00),
    DN(C_3,15,0x000),
    DN(___,0,0xC00),
    DN(C_6,3,0x2CC),
    DN(C_4,15,0x000),
    DN(___,0,0x000),
    DN(___,0,0xC00),
    DN(C_3,15,0x000),
    DN(___,0,0x000),
    DN(___,0,0x000),
    DN(___,0,0xC00),
    DN(C_6,3,0x2CC),
    DN(C_3,15,0x000),
    DN(___,0,0x000),
    DN(___,0,0xC00),
    DN(C_3,15,0x000),
    DN(___,0,0x000),
    DN(___,0,0x000),
    DN(___,0,0xC00),
    DN(C_6,3,0x2CC),
    DN(C_3,15,0x000),
    DN(___,0,0x000),
    DN(___,0,0xC00),
    DN(C_4,15,0x000),
    DN(___,0,0x000),
    DN(___,0,0x000),
    DN(___,0,0xC00),
    DN(C_6,3,0x2CC),
    DN(C_3,15,0x000),
    DN(___,0,0x000),
    DN(___,0,0xC00),
    DN(C_4,15,0x000),
    DN(___,0,0x000),
    DN(___,0,0x000),
    DN(___,0,0xC00),
    DN(C_6,3,0x2CC),
    DN(C_3,15,0x000),
    DN(___,0,0x000),
    DN(___,0,0xC00),
    DN(C_4,15,0x000),
    DN(___,0,0x000),
    DN(___,0,0x000),
    DN(___,0,0xC00),
    DN(C_6,3,0x2CC),
    DN(C_3,15,0x000),
    DN(___,0,0x000),
    DN(___,0,0xC00),
    DN(C_3,15,0x000),
    DN(___,0,0xC00),
    DN(C_4,15,0x000),
    DN(___,0,0xC00),
    DN(C_6,3,0x2CC),
    DN(C_3,15,0x000),
    DN(___,0,0x000),
    DN(___,0,0xC00),
    DN(C_3,15,0x000),
    DN(___,0,0x000),
    DN(___,0,0x000),
    DN(___,0,0xC00),
};
static const unsigned char P19[] = {
    DN(C_5,4,0xF03),
    DN(___,0,0x000),
    DN(___,0,0x000),
    DN(___,0,0x000),
    DN(C_5,1,0x000),
    DN(___,0,0x000),
    DN(C_5,1,0x000),
    DN(___,0,0x000),
    DN(C_5,3,0x000),
    DN(___,0,0x000),
    DN(___,0,0x000),
    DN(___,0,0x000),
    DN(C_5,1,0x000),
    DN(___,0,0x000),
    DN(C_5,1,0x000),
    DN(___,0,0x000),
    DN(C_5,4,0x000),
    DN(___,0,0x000),
    DN(___,0,0x000),
    DN(___,0,0x000),
    DN(C_5,1,0x000),
    DN(___,0,0x000),
    DN(C_5,1,0x000),
    DN(___,0,0x000),
    DN(C_5,3,0x000),
    DN(___,0,0x000),
    DN(___,0,0x000),
    DN(___,0,0x000),
    DN(C_5,1,0x000),
    DN(___,0,0x000),
    DN(C_5,1,0x000),
    DN(___,0,0x000),
    DN(C_5,4,0x000),
    DN(___,0,0x000),
    DN(___,0,0x000),
    DN(___,0,0x000),
    DN(C_5,1,0x000),
    DN(___,0,0x000),
    DN(C_5,1,0x000),
    DN(___,0,0x000),
    DN(C_5,3,0x000),
    DN(___,0,0x000),
    DN(___,0,0x000),
    DN(___,0,0x000),
    DN(C_5,1,0x000),
    DN(___,0,0x000),
    DN(C_5,1,0x000),
    DN(___,0,0x000),
    DN(C_5,4,0x000),
    DN(___,0,0x000),
    DN(___,0,0x000),
    DN(___,0,0x000),
    DN(C_5,1,0x000),
    DN(___,0,0x000),
    DN(C_5,1,0x000),
    DN(___,0,0x000),
    DN(C_5,3,0x000),
    DN(___,0,0x000),
    DN(___,0,0x000),
    DN(___,0,0x000),
    DN(C_5,2,0x000),
    DN(___,0,0x000),
    DN(___,0,0x000),
    DN(___,0,0x000),
};
static const unsigned char P20[] = {
    DN(G_5,3,0xC05),
    DN(C_5,3,0xC05),
    DN(E_5,2,0xC05),
    DN(G_5,2,0xC05),
    DN(C_5,2,0xC05),
    DN(E_5,1,0xC05),
    DN(G_5,1,0xC05),
    DN(C_5,2,0xC05),
    DN(B_4,1,0xC05),
    DN(E_5,1,0xC05),
    DN(G_5,2,0xC05),
    DN(B_4,2,0xC05),
    DN(E_5,3,0xC05),
    DN(G_5,3,0xC05),
    DN(B_4,4,0xC05),
    DN(E_5,4,0xC05),
    DN(G_5,3,0xC05),
    DN(B_4,3,0xC05),
    DN(E_5,2,0xC05),
    DN(G_5,2,0xC05),
    DN(B_4,1,0xC05),
    DN(E_5,1,0xC05),
    DN(G_5,2,0xC05),
    DN(B_4,2,0xC05),
    DN(B_4,1,0xC05),
    DN(E_5,1,0xC05),
    DN(G_5,2,0xC05),
    DN(B_4,2,0xC05),
    DN(E_5,3,0xC05),
    DN(G_5,3,0xC05),
    DN(B_4,4,0xC05),
    DN(E_5,4,0xC05),
    DN(G_5,3,0xC05),
    DN(B_4,3,0xC05),
    DN(E_5,2,0xC05),
    DN(G_5,2,0xC05),
    DN(B_4,1,0xC05),
    DN(E_5,1,0xC05),
    DN(G_5,2,0xC05),
    DN(B_4,2,0xC05),
    DN(B_4,1,0xC05),
    DN(E_5,1,0xC05),
    DN(G_5,2,0xC05),
    DN(B_4,2,0xC05),
    DN(E_5,3,0xC05),
    DN(G_5,3,0xC05),
    DN(B_4,4,0xC05),
    DN(E_5,4,0xC05),
    DN(G_5,3,0xC05),
    DN(B_4,3,0xC05),
    DN(E_5,2,0xC05),
    DN(G_5,2,0xC05),
    DN(B_4,1,0xC05),
    DN(E_5,1,0xC05),
    DN(G_5,2,0xC05),
    DN(B_4,2,0xC05),
    DN(B_4,1,0xC05),
    DN(E_5,1,0xC05),
    DN(G_5,2,0xC05),
    DN(B_4,2,0xC05),
    DN(E_5,3,0xC05),
    DN(G_5,3,0xC05),
    DN(B_4,4,0xC05),
    DN(E_5,4,0xC05),
};
static const unsigned char P21[] = {
    DN(G_5,3,0xC05),
    DN(C_5,3,0xC05),
    DN(E_5,2,0xC05),
    DN(G_5,2,0xC05),
    DN(C_5,2,0xC05),
    DN(E_5,1,0xC05),
    DN(G_5,1,0xC05),
    DN(C_5,2,0xC05),
    DN(E_5,1,0xC05),
    DN(A_5,1,0xC05),
    DN(C_6,2,0xC05),
    DN(E_5,2,0xC05),
    DN(A_5,3,0xC05),
    DN(C_6,3,0xC05),
    DN(E_5,4,0xC05),
    DN(A_5,4,0xC05),
    DN(C_6,3,0xC05),
    DN(E_5,3,0xC05),
    DN(A_5,2,0xC05),
    DN(C_6,2,0xC05),
    DN(E_5,1,0xC05),
    DN(A_5,1,0xC05),
    DN(C_6,2,0xC05),
    DN(E_5,2,0xC05),
    DN(E_5,1,0xC05),
    DN(A_5,1,0xC05),
    DN(C_6,2,0xC05),
    DN(E_5,2,0xC05),
    DN(A_5,3,0xC05),
    DN(C_6,3,0xC05),
    DN(E_5,4,0xC05),
    DN(A_5,4,0xC05),
    DN(C_6,3,0xC05),
    DN(E_5,3,0xC05),
    DN(A_5,2,0xC05),
    DN(C_6,2,0xC05),
    DN(E_5,1,0xC05),
    DN(A_5,1,0xC05),
    DN(C_6,2,0xC05),
    DN(E_5,2,0xC05),
    DN(E_5,1,0xC05),
    DN(A_5,1,0xC05),
    DN(C_6,2,0xC05),
    DN(E_5,2,0xC05),
    DN(A_5,3,0xC05),
    DN(C_6,3,0xC05),
    DN(E_5,4,0xC05),
    DN(A_5,4,0xC05),
    DN(C_6,3,0xC05),
    DN(E_5,3,0xC05),
    DN(A_5,2,0xC05),
    DN(C_6,2,0xC05),
    DN(E_5,1,0xC05),
    DN(A_5,1,0xC05),
    DN(C_6,2,0xC05),
    DN(E_5,2,0xC05),
    DN(E_5,1,0xC05),
    DN(A_5,1,0xC05),
    DN(C_6,2,0xC05),
    DN(E_5,2,0xC05),
    DN(A_5,3,0xC05),
    DN(C_6,3,0xC05),
    DN(E_5,4,0xC05),
    DN(A_5,4,0xC05),
};
static const unsigned char P22[] = {
    DN(E_5,1,0x8FE),
    DN(A_5,1,0x000),
    DN(C_6,2,0x000),
    DN(E_5,2,0x000),
    DN(A_5,3,0x000),
    DN(C_6,3,0x000),
    DN(E_5,4,0x000),
    DN(A_5,4,0x000),
    DN(C_6,3,0x000),
    DN(E_5,3,0x000),
    DN(A_5,2,0x000),
    DN(C_6,2,0x000),
    DN(E_5,1,0x000),
    DN(A_5,1,0x000),
    DN(C_6,2,0x000),
    DN(E_5,2,0x000),
    DN(E_5,1,0x000),
    DN(A_5,1,0x000),
    DN(C_6,2,0x000),
    DN(E_5,2,0x000),
    DN(A_5,3,0x000),
    DN(C_6,3,0x000),
    DN(E_5,4,0x000),
    DN(A_5,4,0x000),
    DN(C_6,3,0x000),
    DN(E_5,3,0x000),
    DN(A_5,2,0x000),
    DN(C_6,2,0x000),
    DN(E_5,1,0x000),
    DN(A_5,1,0x000),
    DN(C_6,2,0x000),
    DN(E_5,2,0x000),
    DN(E_5,1,0x000),
    DN(A_5,1,0x000),
    DN(C_6,2,0x000),
    DN(E_5,2,0x000),
    DN(A_5,3,0x000),
    DN(C_6,3,0x000),
    DN(E_5,4,0x000),
    DN(A_5,4,0x000),
    DN(C_6,3,0x000),
    DN(E_5,3,0x000),
    DN(A_5,2,0x000),
    DN(C_6,2,0x000),
    DN(E_5,1,0x000),
    DN(A_5,1,0x000),
    DN(C_6,2,0x000),
    DN(E_5,2,0x000),
    DN(E_5,1,0x000),
    DN(A_5,1,0x000),
    DN(C_6,2,0x000),
    DN(E_5,2,0x000),
    DN(A_5,3,0x000),
    DN(C_6,3,0x000),
    DN(E_5,4,0x000),
    DN(A_5,4,0x000),
    DN(C_6,3,0x000),
    DN(E_5,3,0x000),
    DN(A_5,2,0x000),
    DN(C_6,2,0x000),
    DN(E_5,2,0x000),
    DN(A_5,1,0x000),
    DN(C_6,1,0x000),
    DN(E_5,2,0x000),
};
static const unsigned char P23[] = {
    DN(C_6,3,0x2CC),
    DN(A_3,15,0x000),
    DN(___,0,0x000),
    DN(___,0,0xC00),
    DN(A_3,15,0x000),
    DN(___,0,0xC00),
    DN(A_3,15,0x000),
    DN(___,0,0xC00),
    DN(C_6,3,0x2CC),
    DN(A_4,15,0x000),
    DN(___,0,0x000),
    DN(___,0,0xC00),
    DN(A_3,15,0x000),
    DN(___,0,0x000),
    DN(___,0,0x000),
    DN(___,0,0xC00),
    DN(C_6,3,0x2CC),
    DN(A_3,15,0x000),
    DN(___,0,0x000),
    DN(___,0,0xC00),
    DN(A_3,15,0x000),
    DN(___,0,0x000),
    DN(___,0,0x000),
    DN(___,0,0xC00),
    DN(C_6,3,0x2CC),
    DN(A_3,15,0x000),
    DN(___,0,0x000),
    DN(___,0,0xC00),
    DN(A_4,15,0x000),
    DN(___,0,0x000),
    DN(___,0,0x000),
    DN(___,0,0xC00),
    DN(C_6,3,0x2CC),
    DN(A_3,15,0x000),
    DN(___,0,0x000),
    DN(___,0,0xC00),
    DN(A_4,15,0x000),
    DN(___,0,0x000),
    DN(___,0,0x000),
    DN(___,0,0xC00),
    DN(C_6,3,0x2CC),
    DN(A_3,15,0x000),
    DN(___,0,0x000),
    DN(___,0,0xC00),
    DN(A_4,15,0x000),
    DN(___,0,0x000),
    DN(___,0,0x000),
    DN(___,0,0xC00),
    DN(C_6,3,0x2CC),
    DN(A_3,15,0x000),
    DN(___,0,0x000),
    DN(___,0,0xC00),
    DN(A_3,15,0x000),
    DN(___,0,0xC00),
    DN(A_3,15,0x000),
    DN(___,0,0xC00),
    DN(C_6,3,0x2CC),
    DN(C_3,15,0x000),
    DN(___,0,0x000),
    DN(___,0,0xC00),
    DN(A_4,15,0x000),
    DN(___,0,0x000),
    DN(___,0,0x000),
    DN(___,0,0xC00),
};
static const unsigned char P24[] = {
    DN(C_6,3,0xC05),
    DN(E_5,3,0xC05),
    DN(A_5,2,0xC05),
    DN(C_6,2,0xC05),
    DN(E_5,2,0xC05),
    DN(A_5,1,0xC05),
    DN(C_6,1,0xC05),
    DN(E_5,2,0xC05),
    DN(D_5,1,0xC05),
    DN(Fs5,1,0xC05),
    DN(A_5,2,0xC05),
    DN(D_5,2,0xC05),
    DN(Fs5,3,0xC05),
    DN(A_5,3,0xC05),
    DN(D_5,4,0xC05),
    DN(Fs5,4,0xC05),
    DN(A_5,3,0xC05),
    DN(D_5,3,0xC05),
    DN(Fs5,2,0xC05),
    DN(A_5,2,0xC05),
    DN(D_5,1,0xC05),
    DN(Fs5,1,0xC05),
    DN(A_5,2,0xC05),
    DN(D_5,2,0xC05),
    DN(D_5,1,0xC05),
    DN(Fs5,1,0xC05),
    DN(A_5,2,0xC05),
    DN(D_5,2,0xC05),
    DN(Fs5,3,0xC05),
    DN(A_5,3,0xC05),
    DN(D_5,4,0xC05),
    DN(Fs5,4,0xC05),
    DN(A_5,3,0xC05),
    DN(D_5,3,0xC05),
    DN(Fs5,2,0xC05),
    DN(A_5,2,0xC05),
    DN(D_5,1,0xC05),
    DN(Fs5,1,0xC05),
    DN(A_5,2,0xC05),
    DN(D_5,2,0xC05),
    DN(A_4,1,0xC05),
    DN(D_5,1,0xC05),
    DN(Fs5,2,0xC05),
    DN(A_4,2,0xC05),
    DN(D_5,3,0xC05),
    DN(Fs5,3,0xC05),
    DN(A_4,4,0xC05),
    DN(D_5,4,0xC05),
    DN(Fs5,3,0xC05),
    DN(A_4,3,0xC05),
    DN(D_5,2,0xC05),
    DN(Fs5,2,0xC05),
    DN(A_4,1,0xC05),
    DN(D_5,1,0xC05),
    DN(Fs5,2,0xC05),
    DN(A_4,2,0xC05),
    DN(A_4,1,0xC05),
    DN(D_5,1,0xC05),
    DN(Fs5,2,0xC05),
    DN(A_4,2,0xC05),
    DN(D_5,3,0xC05),
    DN(Fs5,3,0xC05),
    DN(A_4,4,0xC05),
    DN(D_5,4,0xC05),
};
static const unsigned char P25[] = {
    DN(D_5,1,0x8FE),
    DN(Fs5,1,0x000),
    DN(A_5,2,0x000),
    DN(D_5,2,0x000),
    DN(Fs5,3,0x000),
    DN(A_5,3,0x000),
    DN(D_5,4,0x000),
    DN(Fs5,4,0x000),
    DN(A_5,3,0x000),
    DN(D_5,3,0x000),
    DN(Fs5,2,0x000),
    DN(A_5,2,0x000),
    DN(D_5,1,0x000),
    DN(Fs5,1,0x000),
    DN(A_5,2,0x000),
    DN(D_5,2,0x000),
    DN(D_5,1,0x000),
    DN(Fs5,1,0x000),
    DN(A_5,2,0x000),
    DN(D_5,2,0x000),
    DN(Fs5,3,0x000),
    DN(A_5,3,0x000),
    DN(D_5,4,0x000),
    DN(Fs5,4,0x000),
    DN(A_5,3,0x000),
    DN(D_5,3,0x000),
    DN(Fs5,2,0x000),
    DN(A_5,2,0x000),
    DN(D_5,1,0x000),
    DN(Fs5,1,0x000),
    DN(A_5,2,0x000),
    DN(D_5,2,0x000),
    DN(A_4,1,0x000),
    DN(D_5,1,0x000),
    DN(Fs5,2,0x000),
    DN(A_4,2,0x000),
    DN(D_5,3,0x000),
    DN(Fs5,3,0x000),
    DN(A_4,4,0x000),
    DN(D_5,4,0x000),
    DN(Fs5,3,0x000),
    DN(A_4,3,0x000),
    DN(D_5,2,0x000),
    DN(Fs5,2,0x000),
    DN(A_4,1,0x000),
    DN(D_5,1,0x000),
    DN(Fs5,2,0x000),
    DN(A_4,2,0x000),
    DN(A_4,1,0x000),
    DN(D_5,1,0x000),
    DN(Fs5,2,0x000),
    DN(A_4,2,0x000),
    DN(D_5,3,0x000),
    DN(Fs5,3,0x000),
    DN(A_4,4,0x000),
    DN(D_5,4,0x000),
    DN(Fs5,3,0x000),
    DN(A_4,3,0x000),
    DN(D_5,2,0x000),
    DN(Fs5,2,0x000),
    DN(A_4,1,0x000),
    DN(D_5,1,0x000),
    DN(Fs5,2,0x000),
    DN(A_4,2,0x000),
};
static const unsigned char P26[] = {
    DN(C_6,3,0x2CC),
    DN(D_3,15,0x000),
    DN(___,0,0x000),
    DN(___,0,0xC00),
    DN(D_3,15,0x000),
    DN(___,0,0xC00),
    DN(D_3,15,0x000),
    DN(___,0,0xC00),
    DN(C_6,3,0x2CC),
    DN(D_4,15,0x000),
    DN(___,0,0x000),
    DN(___,0,0xC00),
    DN(D_3,15,0x000),
    DN(___,0,0x000),
    DN(___,0,0x000),
    DN(___,0,0xC00),
    DN(C_6,3,0x2CC),
    DN(D_3,15,0x000),
    DN(___,0,0x000),
    DN(___,0,0xC00),
    DN(D_4,15,0x000),
    DN(___,0,0x000),
    DN(___,0,0x000),
    DN(___,0,0xC00),
    DN(C_6,3,0x2CC),
    DN(D_3,15,0x000),
    DN(___,0,0x000),
    DN(___,0,0xC00),
    DN(D_4,15,0x000),
    DN(___,0,0x000),
    DN(___,0,0x000),
    DN(___,0,0xC00),
    DN(C_6,3,0x2CC),
    DN(D_3,15,0x000),
    DN(___,0,0x000),
    DN(___,0,0xC00),
    DN(D_3,15,0x000),
    DN(___,0,0x000),
    DN(___,0,0x000),
    DN(___,0,0xC00),
    DN(C_6,3,0x2CC),
    DN(D_4,15,0x000),
    DN(___,0,0x000),
    DN(___,0,0xC00),
    DN(D_3,15,0x000),
    DN(___,0,0x000),
    DN(___,0,0x000),
    DN(___,0,0xC00),
    DN(C_6,3,0x2CC),
    DN(D_3,15,0x000),
    DN(___,0,0x000),
    DN(___,0,0xC00),
    DN(D_3,15,0x000),
    DN(___,0,0xC00),
    DN(D_3,15,0x000),
    DN(___,0,0xC00),
    DN(C_6,3,0x2CC),
    DN(D_3,15,0x000),
    DN(___,0,0x000),
    DN(___,0,0xC00),
    DN(D_4,15,0x000),
    DN(___,0,0x000),
    DN(___,0,0x000),
    DN(___,0,0xC00),
};
static const unsigned char P27[] = {
    DN(C_5,5,0xF03),
    DN(___,0,0x000),
    DN(___,0,0x000),
    DN(___,0,0x000),
    DN(C_5,1,0x000),
    DN(___,0,0x000),
    DN(C_5,1,0x000),
    DN(___,0,0x000),
    DN(C_5,3,0x000),
    DN(___,0,0x000),
    DN(___,0,0x000),
    DN(___,0,0x000),
    DN(C_5,1,0x000),
    DN(___,0,0x000),
    DN(C_5,1,0x000),
    DN(___,0,0x000),
    DN(C_5,4,0x000),
    DN(___,0,0x000),
    DN(___,0,0x000),
    DN(___,0,0x000),
    DN(C_5,1,0x000),
    DN(___,0,0x000),
    DN(C_5,1,0x000),
    DN(___,0,0x000),
    DN(C_5,3,0x000),
    DN(___,0,0x000),
    DN(___,0,0x000),
    DN(___,0,0x000),
    DN(C_5,1,0x000),
    DN(___,0,0x000),
    DN(C_5,1,0x000),
    DN(___,0,0x000),
    DN(C_5,4,0x000),
    DN(___,0,0x000),
    DN(___,0,0x000),
    DN(___,0,0x000),
    DN(C_5,1,0x000),
    DN(___,0,0x000),
    DN(C_5,1,0x000),
    DN(___,0,0x000),
    DN(C_5,3,0x000),
    DN(___,0,0x000),
    DN(___,0,0x000),
    DN(___,0,0x000),
    DN(C_5,1,0x000),
    DN(___,0,0x000),
    DN(C_5,1,0x000),
    DN(___,0,0x000),
    DN(C_5,3,0x000),
    DN(___,0,0x000),
    DN(C_5,3,0x000),
    DN(___,0,0x000),
    DN(___,0,0x000),
    DN(___,0,0x000),
    DN(C_5,3,0x000),
    DN(___,0,0x000),
    DN(C_5,3,0x000),
    DN(___,0,0x000),
    DN(___,0,0x000),
    DN(___,0,0x000),
    DN(C_5,3,0x000),
    DN(___,0,0x000),
    DN(C_5,3,0x000),
    DN(___,0,0x000),
};
static const unsigned char P28[] = {
    DN(B_4,1,0xC08),
    DN(E_5,1,0xC08),
    DN(G_5,2,0xC08),
    DN(B_4,2,0xC08),
    DN(E_5,3,0xC08),
    DN(G_5,3,0xC08),
    DN(B_4,4,0xC08),
    DN(E_5,4,0xC08),
    DN(G_5,3,0xC08),
    DN(B_4,3,0xC08),
    DN(E_5,2,0xC08),
    DN(G_5,2,0xC08),
    DN(B_4,1,0xC08),
    DN(E_5,1,0xC08),
    DN(G_5,2,0xC08),
    DN(B_4,2,0xC08),
    DN(B_4,1,0xC08),
    DN(E_5,1,0xC08),
    DN(G_5,2,0xC08),
    DN(B_4,2,0xC08),
    DN(E_5,3,0xC08),
    DN(G_5,3,0xC08),
    DN(B_4,4,0xC08),
    DN(E_5,4,0xC08),
    DN(G_5,3,0xC08),
    DN(B_4,3,0xC08),
    DN(E_5,2,0xC08),
    DN(G_5,2,0xC08),
    DN(B_4,1,0xC08),
    DN(E_5,1,0xC08),
    DN(G_5,2,0xC08),
    DN(B_4,2,0xC08),
    DN(B_4,1,0xC08),
    DN(E_5,1,0xC08),
    DN(G_5,2,0xC08),
    DN(B_4,2,0xC08),
    DN(E_5,3,0xC08),
    DN(G_5,3,0xC08),
    DN(B_4,4,0xC08),
    DN(E_5,4,0xC08),
    DN(G_5,3,0xC08),
    DN(B_4,3,0xC08),
    DN(E_5,2,0xC08),
    DN(G_5,2,0xC08),
    DN(B_4,1,0xC08),
    DN(E_5,1,0xC08),
    DN(G_5,2,0xC08),
    DN(B_4,2,0xC08),
    DN(B_4,1,0xC08),
    DN(E_5,1,0xC08),
    DN(G_5,2,0xC08),
    DN(B_4,2,0xC08),
    DN(E_5,3,0xC08),
    DN(G_5,3,0xC08),
    DN(B_4,4,0xC08),
    DN(E_5,4,0xC08),
    DN(G_5,3,0xC08),
    DN(B_4,3,0xC08),
    DN(E_5,2,0xC08),
    DN(G_5,2,0xC08),
    DN(B_4,2,0xC08),
    DN(E_5,1,0xC08),
    DN(G_5,1,0xC08),
    DN(B_4,2,0xC08),
};
static const unsigned char P29[] = {
    DN(C_5,1,0xC08),
    DN(E_5,1,0xC08),
    DN(G_5,2,0xC08),
    DN(C_5,2,0xC08),
    DN(E_5,3,0xC08),
    DN(G_5,3,0xC08),
    DN(C_5,4,0xC08),
    DN(E_5,4,0xC08),
    DN(G_5,3,0xC08),
    DN(C_5,3,0xC08),
    DN(E_5,2,0xC08),
    DN(G_5,2,0xC08),
    DN(C_5,1,0xC08),
    DN(E_5,1,0xC08),
    DN(G_5,2,0xC08),
    DN(C_5,2,0xC08),
    DN(C_5,1,0xC08),
    DN(E_5,1,0xC08),
    DN(G_5,2,0xC08),
    DN(C_5,2,0xC08),
    DN(E_5,3,0xC08),
    DN(G_5,3,0xC08),
    DN(C_5,4,0xC08),
    DN(E_5,4,0xC08),
    DN(G_5,3,0xC08),
    DN(C_5,3,0xC08),
    DN(E_5,2,0xC08),
    DN(G_5,2,0xC08),
    DN(C_5,1,0xC08),
    DN(E_5,1,0xC08),
    DN(G_5,2,0xC08),
    DN(C_5,2,0xC08),
    DN(C_5,1,0xC08),
    DN(E_5,1,0xC08),
    DN(G_5,2,0xC08),
    DN(C_5,2,0xC08),
    DN(E_5,3,0xC08),
    DN(G_5,3,0xC08),
    DN(C_5,4,0xC08),
    DN(E_5,4,0xC08),
    DN(G_5,3,0xC08),
    DN(C_5,3,0xC08),
    DN(E_5,2,0xC08),
    DN(G_5,2,0xC08),
    DN(C_5,1,0xC08),
    DN(E_5,1,0xC08),
    DN(G_5,2,0xC08),
    DN(C_5,2,0xC08),
    DN(C_5,1,0xC08),
    DN(E_5,1,0xC08),
    DN(G_5,2,0xC08),
    DN(C_5,2,0xC08),
    DN(E_5,3,0xC08),
    DN(G_5,3,0xC08),
    DN(C_5,4,0xC08),
    DN(E_5,4,0xC08),
    DN(G_5,3,0xC08),
    DN(C_5,3,0xC08),
    DN(E_5,2,0xC08),
    DN(G_5,2,0xC08),
    DN(C_5,2,0xC08),
    DN(E_5,1,0xC08),
    DN(G_5,1,0xC08),
    DN(C_5,2,0xC08),
};
static const unsigned char P30[] = {
    DN(E_5,1,0xC08),
    DN(A_5,1,0xC08),
    DN(C_6,2,0xC08),
    DN(E_5,2,0xC08),
    DN(A_5,3,0xC08),
    DN(C_6,3,0xC08),
    DN(E_5,4,0xC08),
    DN(A_5,4,0xC08),
    DN(C_6,3,0xC08),
    DN(E_5,3,0xC08),
    DN(A_5,2,0xC08),
    DN(C_6,2,0xC08),
    DN(E_5,1,0xC08),
    DN(A_5,1,0xC08),
    DN(C_6,2,0xC08),
    DN(E_5,2,0xC08),
    DN(E_5,1,0xC08),
    DN(A_5,1,0xC08),
    DN(C_6,2,0xC08),
    DN(E_5,2,0xC08),
    DN(A_5,3,0xC08),
    DN(C_6,3,0xC08),
    DN(E_5,4,0xC08),
    DN(A_5,4,0xC08),
    DN(C_6,3,0xC08),
    DN(E_5,3,0xC08),
    DN(A_5,2,0xC08),
    DN(C_6,2,0xC08),
    DN(E_5,1,0xC08),
    DN(A_5,1,0xC08),
    DN(C_6,2,0xC08),
    DN(E_5,2,0xC08),
    DN(E_5,1,0xC08),
    DN(A_5,1,0xC08),
    DN(C_6,2,0xC08),
    DN(E_5,2,0xC08),
    DN(A_5,3,0xC08),
    DN(C_6,3,0xC08),
    DN(E_5,4,0xC08),
    DN(A_5,4,0xC08),
    DN(C_6,3,0xC08),
    DN(E_5,3,0xC08),
    DN(A_5,2,0xC08),
    DN(C_6,2,0xC08),
    DN(E_5,1,0xC08),
    DN(A_5,1,0xC08),
    DN(C_6,2,0xC08),
    DN(E_5,2,0xC08),
    DN(E_5,1,0xC08),
    DN(A_5,1,0xC08),
    DN(C_6,2,0xC08),
    DN(E_5,2,0xC08),
    DN(A_5,3,0xC08),
    DN(C_6,3,0xC08),
    DN(E_5,4,0xC08),
    DN(A_5,4,0xC08),
    DN(C_6,3,0xC08),
    DN(E_5,3,0xC08),
    DN(A_5,2,0xC08),
    DN(C_6,2,0xC08),
    DN(E_5,2,0xC08),
    DN(A_5,1,0xC08),
    DN(C_6,1,0xC08),
    DN(E_5,2,0xC08),
};
static const unsigned char P31[] = {
    DN(D_5,1,0xC08),
    DN(Fs5,1,0xC08),
    DN(A_5,2,0xC08),
    DN(D_5,2,0xC08),
    DN(Fs5,3,0xC08),
    DN(A_5,3,0xC08),
    DN(D_5,4,0xC08),
    DN(Fs5,4,0xC08),
    DN(A_5,3,0xC08),
    DN(D_5,3,0xC08),
    DN(Fs5,2,0xC08),
    DN(A_5,2,0xC08),
    DN(D_5,1,0xC08),
    DN(Fs5,1,0xC08),
    DN(A_5,2,0xC08),
    DN(D_5,2,0xC08),
    DN(D_5,1,0xC08),
    DN(Fs5,1,0xC08),
    DN(A_5,2,0xC08),
    DN(D_5,2,0xC08),
    DN(Fs5,3,0xC08),
    DN(A_5,3,0xC08),
    DN(D_5,4,0xC08),
    DN(Fs5,4,0xC08),
    DN(A_5,3,0xC08),
    DN(D_5,3,0xC08),
    DN(Fs5,2,0xC08),
    DN(A_5,2,0xC08),
    DN(D_5,1,0xC08),
    DN(Fs5,1,0xC08),
    DN(A_5,2,0xC08),
    DN(D_5,2,0xC08),
    DN(A_4,1,0xC08),
    DN(D_5,1,0xC08),
    DN(Fs5,2,0xC08),
    DN(A_4,2,0xC08),
    DN(D_5,3,0xC08),
    DN(Fs5,3,0xC08),
    DN(A_4,4,0xC08),
    DN(D_5,4,0xC08),
    DN(Fs5,3,0xC08),
    DN(A_4,3,0xC08),
    DN(D_5,2,0xC08),
    DN(Fs5,2,0xC08),
    DN(A_4,1,0xC08),
    DN(D_5,1,0xC08),
    DN(Fs5,2,0xC08),
    DN(A_4,2,0xC08),
    DN(A_4,1,0xC08),
    DN(D_5,1,0xC08),
    DN(Fs5,2,0xC08),
    DN(A_4,2,0xC08),
    DN(D_5,3,0xC08),
    DN(Fs5,3,0xC08),
    DN(A_4,4,0xC08),
    DN(D_5,4,0xC08),
    DN(Fs5,3,0xC08),
    DN(A_4,3,0xC08),
    DN(D_5,2,0xC08),
    DN(Fs5,2,0xC08),
    DN(A_4,1,0xC08),
    DN(D_5,1,0xC08),
    DN(Fs5,2,0xC08),
    DN(A_4,2,0xC08),
};
static const unsigned char P32[] = {
    DN(___,0,0xC00),
    DN(___,0,0x8FF),
    DN(___,0,0x000),
    DN(___,0,0x000),
    DN(___,0,0x000),
    DN(___,0,0x000),
    DN(___,0,0x000),
    DN(___,0,0x000),
    DN(E_5,2,0x000),
    DN(Fs5,2,0x000),
    DN(G_5,2,0x000),
    DN(___,0,0x000),
    DN(___,0,0x444),
    DN(___,0,0x444),
    DN(___,0,0x444),
    DN(___,0,0x210),
    DN(E_5,2,0x000),
    DN(___,0,0xC00),
    DN(G_5,2,0xC04),
    DN(___,0,0x000),
    DN(D_5,2,0x000),
    DN(E_5,2,0x000),
    DN(___,0,0x000),
    DN(___,0,0x000),
    DN(___,0,0x444),
    DN(___,0,0x444),
    DN(___,0,0x444),
    DN(___,0,0x444),
    DN(D_5,2,0x000),
    DN(___,0,0xC00),
    DN(E_5,2,0xC04),
    DN(___,0,0x000),
    DN(E_5,2,0x000),
    DN(___,0,0x000),
    DN(___,0,0x000),
    DN(___,0,0x000),
    DN(___,0,0x444),
    DN(___,0,0x444),
    DN(___,0,0x444),
    DN(___,0,0x210),
    DN(G_5,2,0x000),
    DN(___,0,0xC00),
    DN(E_5,2,0xC04),
    DN(___,0,0x000),
    DN(A_5,2,0x000),
    DN(B_5,2,0x000),
    DN(___,0,0x000),
    DN(___,0,0x000),
    DN(___,0,0x455),
    DN(___,0,0x455),
    DN(___,0,0x455),
    DN(___,0,0xC00),
    DN(B_5,2,0x000),
    DN(___,0,0xC00),
    DN(B_5,2,0xC04),
    DN(___,0,0x000),
    DN(G_5,2,0x000),
    DN(A_5,2,0x000),
    DN(___,0,0x000),
    DN(___,0,0x000),
    DN(G_5,2,0x000),
    DN(___,0,0x000),
    DN(___,0,0x000),
    DN(___,0,0x000),
};
static const unsigned char P33[] = {
    DN(Fs5,2,0x000),
    DN(G_5,2,0x000),
    DN(___,0,0x000),
    DN(___,0,0x000),
    DN(___,0,0x468),
    DN(___,0,0x468),
    DN(___,0,0x468),
    DN(___,0,0x468),
    DN(D_5,2,0x000),
    DN(___,0,0xC00),
    DN(G_5,2,0xC04),
    DN(___,0,0x000),
    DN(D_5,2,0x000),
    DN(E_5,2,0x000),
    DN(___,0,0x000),
    DN(___,0,0x000),
    DN(___,0,0x468),
    DN(___,0,0x468),
    DN(___,0,0x468),
    DN(___,0,0x210),
    DN(D_5,2,0x000),
    DN(___,0,0xC00),
    DN(___,0,0x000),
    DN(___,0,0x000),
    DN(E_5,2,0x000),
    DN(___,0,0x000),
    DN(___,0,0x000),
    DN(___,0,0x000),
    DN(___,0,0x468),
    DN(___,0,0x468),
    DN(___,0,0x468),
    DN(___,0,0x468),
    DN(E_5,2,0x000),
    DN(___,0,0xC00),
    DN(___,0,0x000),
    DN(___,0,0x000),
    DN(Fs5,2,0x000),
    DN(___,0,0x000),
    DN(___,0,0x000),
    DN(___,0,0x000),
    DN(G_5,2,0x000),
    DN(___,0,0xC00),
    DN(___,0,0x000),
    DN(___,0,0x000),
    DN(B_4,2,0x000),
    DN(___,0,0x000),
    DN(___,0,0x000),
    DN(___,0,0x000),
    DN(___,0,0x468),
    DN(___,0,0x468),
    DN(___,0,0x468),
    DN(___,0,0x210),
    DN(Fs5,2,0x000),
    DN(___,0,0x000),
    DN(___,0,0x000),
    DN(___,0,0x000),
    DN(___,0,0x468),
    DN(___,0,0x468),
    DN(___,0,0x468),
    DN(___,0,0x468),
    DN(G_5,2,0x000),
    DN(___,0,0xC00),
    DN(___,0,0x000),
    DN(___,0,0x000),
};
static const unsigned char P34[] = {
    DN(Fs5,2,0x000),
    DN(G_5,2,0x000),
    DN(___,0,0x000),
    DN(___,0,0x000),
    DN(___,0,0x468),
    DN(___,0,0x468),
    DN(___,0,0x468),
    DN(___,0,0x468),
    DN(___,0,0xC08),
    DN(___,0,0x000),
    DN(___,0,0x000),
    DN(___,0,0x210),
    DN(A_5,2,0x000),
    DN(B_5,2,0x000),
    DN(___,0,0x000),
    DN(___,0,0x000),
    DN(A_5,2,0x000),
    DN(___,0,0x000),
    DN(___,0,0x468),
    DN(___,0,0x468),
    DN(___,0,0xC08),
    DN(___,0,0x210),
    DN(G_5,2,0x000),
    DN(___,0,0x000),
    DN(___,0,0x000),
    DN(___,0,0x000),
    DN(___,0,0xC08),
    DN(___,0,0x000),
    DN(Fs5,2,0x000),
    DN(___,0,0x000),
    DN(___,0,0x000),
    DN(___,0,0x000),
    DN(E_5,2,0x000),
    DN(Fs5,2,0x000),
    DN(___,0,0x000),
    DN(___,0,0x000),
    DN(___,0,0xC08),
    DN(___,0,0x000),
    DN(A_5,2,0x000),
    DN(___,0,0x000),
    DN(___,0,0x468),
    DN(___,0,0x468),
    DN(___,0,0x468),
    DN(___,0,0x468),
    DN(G_5,2,0x000),
    DN(___,0,0x000),
    DN(___,0,0x000),
    DN(___,0,0x210),
    DN(Fs5,2,0x000),
    DN(___,0,0x000),
    DN(___,0,0x000),
    DN(___,0,0x000),
    DN(___,0,0xC08),
    DN(___,0,0x000),
    DN(E_5,2,0x000),
    DN(___,0,0x000),
    DN(___,0,0x000),
    DN(___,0,0x000),
    DN(___,0,0x468),
    DN(___,0,0x210),
    DN(D_5,2,0x000),
    DN(___,0,0x000),
    DN(___,0,0x000),
    DN(___,0,0x000),
};
static const unsigned char P35[] = {
    DN(___,0,0x468),
    DN(___,0,0x468),
    DN(___,0,0x468),
    DN(___,0,0x468),
    DN(___,0,0x444),
    DN(___,0,0x444),
    DN(___,0,0x444),
    DN(___,0,0x210),
    DN(D_5,2,0x110),
    DN(E_5,2,0x320),
    DN(___,0,0x000),
    DN(___,0,0x000),
    DN(___,0,0x000),
    DN(___,0,0x000),
    DN(___,0,0x000),
    DN(___,0,0x000),
    DN(___,0,0x464),
    DN(___,0,0x464),
    DN(___,0,0x464),
    DN(___,0,0x464),
    DN(___,0,0x464),
    DN(___,0,0x464),
    DN(___,0,0x464),
    DN(___,0,0x464),
    DN(___,0,0x464),
    DN(___,0,0x464),
    DN(___,0,0x464),
    DN(___,0,0x464),
    DN(___,0,0x464),
    DN(___,0,0x464),
    DN(___,0,0x464),
    DN(___,0,0x464),
    DN(G_6,7,0x000),
    DN(G_7,7,0x000),
    DN(G_6,7,0x000),
    DN(G_7,7,0x000),
    DN(Fs6,7,0x000),
    DN(Fs7,7,0x000),
    DN(Fs6,7,0x000),
    DN(Fs7,7,0x000),
    DN(E_6,7,0x000),
    DN(E_7,7,0x000),
    DN(E_6,7,0x000),
    DN(E_7,7,0x000),
    DN(D_6,1,0x000),
    DN(E_6,1,0x000),
    DN(___,0,0x000),
    DN(___,0,0x000),
    DN(___,0,0x444),
    DN(___,0,0x444),
    DN(___,0,0x444),
    DN(___,0,0x210),
    DN(D_6,1,0x000),
    DN(___,0,0x000),
    DN(___,0,0x000),
    DN(___,0,0x000),
    DN(C_6,1,0x000),
    DN(___,0,0x000),
    DN(___,0,0x000),
    DN(___,0,0x000),
    DN(___,0,0x444),
    DN(___,0,0x444),
    DN(___,0,0x444),
    DN(___,0,0x444),
};
static const unsigned char P36[] = {
    DN(B_5,1,0x000),
    DN(C_6,1,0x000),
    DN(___,0,0x000),
    DN(___,0,0x000),
    DN(___,0,0x000),
    DN(___,0,0x000),
    DN(___,0,0x000),
    DN(___,0,0x000),
    DN(___,0,0x442),
    DN(___,0,0x442),
    DN(___,0,0x442),
    DN(___,0,0x442),
    DN(___,0,0x442),
    DN(___,0,0x442),
    DN(___,0,0x442),
    DN(___,0,0x442),
    DN(___,0,0x442),
    DN(___,0,0x442),
    DN(___,0,0x442),
    DN(___,0,0x442),
    DN(___,0,0x442),
    DN(___,0,0x442),
    DN(___,0,0x442),
    DN(___,0,0x442),
    DN(___,0,0x442),
    DN(___,0,0x442),
    DN(___,0,0x442),
    DN(___,0,0x442),
    DN(___,0,0x442),
    DN(___,0,0x442),
    DN(___,0,0x442),
    DN(___,0,0x442),
    DN(___,0,0x442),
    DN(___,0,0x442),
    DN(___,0,0x442),
    DN(___,0,0x442),
    DN(___,0,0x442),
    DN(___,0,0x442),
    DN(___,0,0x442),
    DN(___,0,0x442),
    DN(___,0,0x442),
    DN(___,0,0x442),
    DN(___,0,0x442),
    DN(___,0,0x442),
    DN(___,0,0x442),
    DN(___,0,0x442),
    DN(___,0,0x442),
    DN(___,0,0x442),
    DN(___,0,0x442),
    DN(___,0,0x442),
    DN(___,0,0x442),
    DN(___,0,0x442),
    DN(___,0,0x442),
    DN(___,0,0x442),
    DN(___,0,0x442),
    DN(___,0,0x442),
    DN(D_6,1,0x000),
    DN(___,0,0x000),
    DN(___,0,0x000),
    DN(___,0,0x210),
    DN(D_5,1,0x000),
    DN(___,0,0xC00),
    DN(___,0,0x000),
    DN(___,0,0x000),
};
static const unsigned char P37[] = {
    DN(C_6,1,0x000),
    DN(D_6,1,0x000),
    DN(___,0,0x000),
    DN(___,0,0x000),
    DN(___,0,0x000),
    DN(___,0,0x000),
    DN(___,0,0x000),
    DN(___,0,0x000),
    DN(___,0,0x442),
    DN(___,0,0x442),
    DN(___,0,0x442),
    DN(___,0,0x442),
    DN(___,0,0x442),
    DN(___,0,0x442),
    DN(___,0,0x442),
    DN(___,0,0x442),
    DN(___,0,0x442),
    DN(___,0,0x442),
    DN(___,0,0x442),
    DN(___,0,0x442),
    DN(___,0,0x442),
    DN(___,0,0x442),
    DN(___,0,0x442),
    DN(___,0,0x442),
    DN(___,0,0x442),
    DN(___,0,0x442),
    DN(___,0,0x442),
    DN(___,0,0x442),
    DN(___,0,0x442),
    DN(___,0,0x442),
    DN(___,0,0x442),
    DN(___,0,0x442),
    DN(___,0,0x442),
    DN(___,0,0x442),
    DN(___,0,0x442),
    DN(___,0,0x442),
    DN(___,0,0x442),
    DN(___,0,0x442),
    DN(___,0,0x442),
    DN(___,0,0x442),
    DN(___,0,0x442),
    DN(___,0,0x442),
    DN(___,0,0x442),
    DN(___,0,0x442),
    DN(___,0,0x442),
    DN(___,0,0x442),
    DN(___,0,0x442),
    DN(___,0,0x442),
    DN(___,0,0x442),
    DN(___,0,0x442),
    DN(___,0,0x442),
    DN(___,0,0x442),
    DN(___,0,0x442),
    DN(___,0,0x442),
    DN(___,0,0x442),
    DN(___,0,0x442),
    DN(___,0,0xA01),
    DN(___,0,0xA01),
    DN(___,0,0xA01),
    DN(___,0,0xA01),
    DN(___,0,0xA01),
    DN(___,0,0xA01),
    DN(___,0,0xA01),
    DN(___,0,0x210),
};
static const unsigned char P38[] = {
    DN(E_5,1,0x000),
    DN(___,0,0x000),
    DN(___,0,0x000),
    DN(___,0,0x000),
    DN(___,0,0x000),
    DN(___,0,0x000),
    DN(___,0,0x000),
    DN(___,0,0x000),
    DN(___,0,0x442),
    DN(___,0,0x442),
    DN(___,0,0x442),
    DN(___,0,0x442),
    DN(___,0,0x442),
    DN(___,0,0x442),
    DN(___,0,0x442),
    DN(___,0,0x442),
    DN(___,0,0x442),
    DN(___,0,0x442),
    DN(___,0,0x442),
    DN(___,0,0x442),
    DN(___,0,0x442),
    DN(___,0,0x442),
    DN(___,0,0x442),
    DN(___,0,0x442),
    DN(___,0,0x442),
    DN(___,0,0x442),
    DN(___,0,0x442),
    DN(___,0,0x442),
    DN(___,0,0x442),
    DN(___,0,0x442),
    DN(___,0,0x442),
    DN(___,0,0x210),
    DN(E_4,1,0x310),
    DN(___,0,0x310),
    DN(___,0,0x310),
    DN(___,0,0x310),
    DN(___,0,0x442),
    DN(___,0,0x442),
    DN(___,0,0x442),
    DN(___,0,0x442),
    DN(___,0,0x442),
    DN(___,0,0x442),
    DN(___,0,0x442),
    DN(___,0,0x442),
    DN(___,0,0x442),
    DN(___,0,0x442),
    DN(___,0,0x442),
    DN(___,0,0x442),
    DN(___,0,0x442),
    DN(___,0,0x442),
    DN(___,0,0x442),
    DN(___,0,0x442),
    DN(___,0,0x442),
    DN(___,0,0x442),
    DN(___,0,0x442),
    DN(___,0,0x442),
    DN(___,0,0x442),
    DN(___,0,0x442),
    DN(___,0,0x442),
    DN(___,0,0x442),
    DN(___,0,0x442),
    DN(___,0,0x442),
    DN(___,0,0x442),
    DN(___,0,0x442),
};
static const unsigned char P39[] = {
    DN(___,0,0x442),
    DN(___,0,0x442),
    DN(___,0,0x442),
    DN(___,0,0x442),
    DN(___,0,0x442),
    DN(___,0,0x442),
    DN(___,0,0x442),
    DN(___,0,0x442),
    DN(___,0,0x442),
    DN(___,0,0x442),
    DN(___,0,0x442),
    DN(___,0,0x442),
    DN(___,0,0x442),
    DN(___,0,0x442),
    DN(___,0,0x442),
    DN(___,0,0x442),
    DN(___,0,0x442),
    DN(___,0,0x442),
    DN(___,0,0x442),
    DN(___,0,0x442),
    DN(___,0,0x442),
    DN(___,0,0x442),
    DN(___,0,0x442),
    DN(___,0,0x442),
    DN(B_4,1,0x320),
    DN(___,0,0x320),
    DN(___,0,0x310),
    DN(___,0,0x310),
    DN(___,0,0x442),
    DN(___,0,0x442),
    DN(___,0,0x442),
    DN(___,0,0x442),
    DN(___,0,0x442),
    DN(___,0,0x442),
    DN(___,0,0x442),
    DN(___,0,0x442),
    DN(___,0,0x442),
    DN(___,0,0x442),
    DN(___,0,0x442),
    DN(___,0,0x442),
    DN(___,0,0x442),
    DN(___,0,0x442),
    DN(___,0,0x442),
    DN(___,0,0x442),
    DN(___,0,0x442),
    DN(___,0,0x442),
    DN(___,0,0x442),
    DN(___,0,0x442),
    DN(C_5,1,0x310),
    DN(___,0,0x310),
    DN(___,0,0x310),
    DN(___,0,0x310),
    DN(___,0,0x442),
    DN(___,0,0x442),
    DN(___,0,0x442),
    DN(___,0,0x442),
    DN(___,0,0x442),
    DN(___,0,0x442),
    DN(___,0,0x442),
    DN(___,0,0x442),
    DN(___,0,0x442),
    DN(___,0,0x442),
    DN(___,0,0x442),
    DN(___,0,0x442),
};
static const unsigned char P40[] = {
    DN(C_5,3,0xF03),
    DN(___,0,0x000),
    DN(___,0,0x000),
    DN(___,0,0x000),
    DN(C_5,1,0x000),
    DN(___,0,0x000),
    DN(___,0,0x000),
    DN(___,0,0x000),
    DN(C_5,1,0x000),
    DN(___,0,0x000),
    DN(___,0,0x000),
    DN(___,0,0x000),
    DN(C_5,1,0x000),
    DN(___,0,0x000),
    DN(___,0,0x000),
    DN(___,0,0x000),
    DN(C_5,1,0x000),
    DN(___,0,0x000),
    DN(___,0,0x000),
    DN(___,0,0x000),
    DN(C_5,3,0x000),
    DN(___,0,0x000),
    DN(___,0,0x000),
    DN(___,0,0x000),
    DN(C_5,1,0x000),
    DN(___,0,0x000),
    DN(___,0,0x000),
    DN(___,0,0x000),
    DN(C_5,3,0x000),
    DN(___,0,0x000),
    DN(___,0,0x000),
    DN(___,0,0x000),
    DN(C_5,2,0x000),
    DN(___,0,0x000),
    DN(___,0,0x000),
    DN(___,0,0x000),
    DN(C_5,1,0x000),
    DN(___,0,0x000),
    DN(___,0,0x000),
    DN(___,0,0x000),
    DN(C_5,1,0x000),
    DN(___,0,0x000),
    DN(___,0,0x000),
    DN(___,0,0x000),
    DN(C_5,1,0x000),
    DN(___,0,0x000),
    DN(___,0,0x000),
    DN(___,0,0x000),
    DN(C_5,1,0x000),
    DN(___,0,0x000),
    DN(___,0,0x000),
    DN(___,0,0x000),
    DN(C_5,3,0x000),
    DN(___,0,0x000),
    DN(___,0,0x000),
    DN(___,0,0x000),
    DN(C_5,1,0x000),
    DN(___,0,0x000),
    DN(___,0,0x000),
    DN(___,0,0x000),
    DN(C_5,3,0x000),
    DN(___,0,0x000),
    DN(___,0,0x000),
    DN(___,0,0x000),
};
static const unsigned char P41[] = {
    DN(C_6,3,0x2CC),
    DN(E_4,5,0x000),
    DN(___,0,0x000),
    DN(___,0,0x000),
    DN(E_4,5,0x000),
    DN(___,0,0x000),
    DN(___,0,0x000),
    DN(___,0,0x000),
    DN(E_4,5,0x000),
    DN(___,0,0x000),
    DN(___,0,0x000),
    DN(___,0,0x000),
    DN(C_6,3,0x2CC),
    DN(E_4,5,0x000),
    DN(___,0,0x000),
    DN(___,0,0x000),
    DN(E_4,5,0x000),
    DN(___,0,0x000),
    DN(___,0,0x000),
    DN(___,0,0x000),
    DN(C_6,3,0x2CC),
    DN(E_4,5,0x000),
    DN(___,0,0x000),
    DN(___,0,0x000),
    DN(E_4,5,0x000),
    DN(___,0,0x000),
    DN(___,0,0x000),
    DN(___,0,0x000),
    DN(C_6,3,0x2CC),
    DN(E_4,5,0x000),
    DN(___,0,0x000),
    DN(___,0,0x000),
    DN(C_6,3,0x2CC),
    DN(E_4,5,0x000),
    DN(___,0,0x000),
    DN(___,0,0x000),
    DN(E_4,5,0x000),
    DN(___,0,0x000),
    DN(___,0,0x000),
    DN(___,0,0x000),
    DN(E_4,5,0x000),
    DN(___,0,0x000),
    DN(___,0,0x000),
    DN(___,0,0x000),
    DN(C_6,3,0x2CC),
    DN(E_4,5,0x000),
    DN(___,0,0x000),
    DN(___,0,0x000),
    DN(E_4,5,0x000),
    DN(___,0,0x000),
    DN(___,0,0x000),
    DN(___,0,0x000),
    DN(C_6,3,0x2CC),
    DN(E_4,5,0x000),
    DN(___,0,0x000),
    DN(___,0,0x000),
    DN(E_4,5,0x000),
    DN(___,0,0x000),
    DN(___,0,0x000),
    DN(___,0,0x000),
    DN(C_6,3,0x2CC),
    DN(E_4,5,0x000),
    DN(___,0,0x000),
    DN(___,0,0x000),
};
static const unsigned char P42[] = {
    DN(B_4,1,0x108),
    DN(C_5,1,0x310),
    DN(___,0,0x442),
    DN(___,0,0x442),
    DN(___,0,0x442),
    DN(___,0,0x442),
    DN(___,0,0x442),
    DN(___,0,0x442),
    DN(___,0,0x442),
    DN(___,0,0x442),
    DN(___,0,0x442),
    DN(___,0,0x442),
    DN(___,0,0x442),
    DN(___,0,0x442),
    DN(___,0,0x442),
    DN(___,0,0x442),
    DN(___,0,0x442),
    DN(___,0,0x442),
    DN(___,0,0x442),
    DN(___,0,0x442),
    DN(___,0,0x442),
    DN(___,0,0x442),
    DN(___,0,0x442),
    DN(___,0,0x442),
    DN(___,0,0x442),
    DN(___,0,0x442),
    DN(___,0,0x442),
    DN(___,0,0x442),
    DN(___,0,0x442),
    DN(___,0,0x442),
    DN(___,0,0x442),
    DN(___,0,0x442),
    DN(D_5,1,0x310),
    DN(___,0,0x310),
    DN(___,0,0x310),
    DN(___,0,0x310),
    DN(___,0,0x442),
    DN(___,0,0x442),
    DN(___,0,0x442),
    DN(___,0,0x442),
    DN(___,0,0x442),
    DN(___,0,0x442),
    DN(___,0,0x442),
    DN(___,0,0x442),
    DN(___,0,0x442),
    DN(___,0,0x442),
    DN(___,0,0x442),
    DN(___,0,0x442),
    DN(___,0,0x442),
    DN(___,0,0x442),
    DN(___,0,0x442),
    DN(___,0,0x442),
    DN(___,0,0x442),
    DN(___,0,0x442),
    DN(___,0,0x442),
    DN(___,0,0x442),
    DN(___,0,0x442),
    DN(___,0,0x442),
    DN(___,0,0x442),
    DN(___,0,0x442),
    DN(___,0,0x442),
    DN(___,0,0x442),
    DN(___,0,0x442),
    DN(___,0,0x442),
};
static const unsigned char P43[] = {
    DN(G_4,1,0xC0F),
    DN(C_5,1,0xC0D),
    DN(E_5,2,0xC0B),
    DN(G_4,2,0xC0F),
    DN(C_5,3,0xC0D),
    DN(E_5,3,0xC0B),
    DN(G_4,4,0xC0F),
    DN(C_5,4,0xC0D),
    DN(E_5,3,0xC0B),
    DN(G_4,3,0xC09),
    DN(C_5,2,0xC07),
    DN(E_5,2,0xC06),
    DN(G_4,1,0xC0F),
    DN(C_5,1,0xC0D),
    DN(E_5,2,0xC0B),
    DN(G_4,2,0xC09),
    DN(A_4,2,0xC0F),
    DN(G_4,1,0xC0D),
    DN(C_5,1,0xC0B),
    DN(E_5,2,0xC0F),
    DN(G_4,2,0xC0D),
    DN(C_5,3,0xC0B),
    DN(E_5,3,0xC0F),
    DN(G_4,4,0xC0D),
    DN(C_5,4,0xC0B),
    DN(E_5,3,0xC09),
    DN(G_4,3,0xC07),
    DN(C_5,2,0xC06),
    DN(E_5,2,0xC0F),
    DN(G_4,1,0xC0D),
    DN(C_5,1,0xC0B),
    DN(E_5,2,0xC09),
    DN(A_4,1,0xC0F),
    DN(D_5,1,0xC0D),
    DN(Fs5,2,0xC0B),
    DN(A_4,2,0xC0F),
    DN(D_5,3,0xC0D),
    DN(Fs5,3,0xC0B),
    DN(A_4,4,0xC0F),
    DN(D_5,4,0xC0D),
    DN(Fs5,3,0xC0B),
    DN(A_4,3,0xC09),
    DN(D_5,2,0xC07),
    DN(Fs5,2,0xC06),
    DN(A_4,1,0xC0F),
    DN(D_5,1,0xC0D),
    DN(Fs5,2,0xC0B),
    DN(A_4,2,0xC09),
    DN(B_4,2,0xC0F),
    DN(A_4,1,0xC0D),
    DN(D_5,1,0xC0B),
    DN(Fs5,2,0xC0F),
    DN(A_4,2,0xC0D),
    DN(D_5,3,0xC0B),
    DN(Fs5,3,0xC0F),
    DN(A_4,4,0xC0D),
    DN(D_5,4,0xC0B),
    DN(Fs5,3,0xC09),
    DN(A_4,3,0xC07),
    DN(D_5,2,0xC06),
    DN(Fs5,2,0xC0F),
    DN(A_4,1,0xC0D),
    DN(D_5,1,0xC0B),
    DN(Fs5,2,0xC09),
};
static const unsigned char P44[] = {
    DN(C_6,3,0x2CC),
    DN(C_4,5,0x000),
    DN(___,0,0x000),
    DN(___,0,0x000),
    DN(C_4,5,0x000),
    DN(___,0,0x000),
    DN(___,0,0x000),
    DN(___,0,0x000),
    DN(C_4,5,0x000),
    DN(___,0,0x000),
    DN(___,0,0x000),
    DN(___,0,0x000),
    DN(C_6,3,0x2CC),
    DN(C_4,5,0x000),
    DN(___,0,0x000),
    DN(___,0,0x000),
    DN(C_4,5,0x000),
    DN(___,0,0x000),
    DN(___,0,0x000),
    DN(___,0,0x000),
    DN(C_6,3,0x2CC),
    DN(C_4,5,0x000),
    DN(___,0,0x000),
    DN(___,0,0x000),
    DN(C_4,5,0x000),
    DN(___,0,0x000),
    DN(___,0,0x000),
    DN(___,0,0x000),
    DN(C_6,3,0x2CC),
    DN(C_4,5,0x000),
    DN(___,0,0x000),
    DN(___,0,0x000),
    DN(C_6,3,0x2CC),
    DN(D_4,5,0x000),
    DN(___,0,0x000),
    DN(___,0,0x000),
    DN(D_4,5,0x000),
    DN(___,0,0x000),
    DN(___,0,0x000),
    DN(___,0,0x000),
    DN(D_4,5,0x000),
    DN(___,0,0x000),
    DN(___,0,0x000),
    DN(___,0,0x000),
    DN(C_6,3,0x2CC),
    DN(D_4,5,0x000),
    DN(___,0,0x000),
    DN(___,0,0x000),
    DN(D_4,5,0x000),
    DN(___,0,0x000),
    DN(___,0,0x000),
    DN(___,0,0x000),
    DN(C_6,3,0x2CC),
    DN(D_4,5,0x000),
    DN(___,0,0x000),
    DN(___,0,0x000),
    DN(D_4,5,0x000),
    DN(___,0,0x000),
    DN(___,0,0x000),
    DN(___,0,0x000),
    DN(C_6,3,0x2CC),
    DN(D_4,5,0x000),
    DN(___,0,0x000),
    DN(___,0,0x000),
};
static const unsigned char P45[] = {
    DN(D_5,1,0x110),
    DN(E_5,1,0x310),
    DN(___,0,0x442),
    DN(___,0,0x442),
    DN(___,0,0x442),
    DN(___,0,0x442),
    DN(___,0,0x442),
    DN(___,0,0x442),
    DN(___,0,0x442),
    DN(___,0,0x442),
    DN(___,0,0x442),
    DN(___,0,0x442),
    DN(___,0,0x442),
    DN(___,0,0x442),
    DN(___,0,0x442),
    DN(___,0,0x442),
    DN(___,0,0x442),
    DN(___,0,0x442),
    DN(___,0,0x442),
    DN(___,0,0x442),
    DN(___,0,0x442),
    DN(___,0,0x442),
    DN(___,0,0x442),
    DN(___,0,0x442),
    DN(___,0,0x442),
    DN(___,0,0x442),
    DN(___,0,0x442),
    DN(___,0,0x442),
    DN(___,0,0x442),
    DN(___,0,0x442),
    DN(___,0,0x442),
    DN(___,0,0x442),
    DN(G_5,1,0x000),
    DN(___,0,0x000),
    DN(___,0,0xC00),
    DN(G_5,1,0xC85),
    DN(G_5,1,0x442),
    DN(___,0,0xC00),
    DN(G_5,1,0xC05),
    DN(___,0,0x000),
    DN(G_5,1,0x442),
    DN(___,0,0x442),
    DN(___,0,0x442),
    DN(___,0,0x442),
    DN(Fs5,1,0x000),
    DN(___,0,0x000),
    DN(___,0,0xC00),
    DN(Fs5,1,0xC05),
    DN(Fs5,1,0x000),
    DN(___,0,0x000),
    DN(___,0,0x000),
    DN(___,0,0xC00),
    DN(Fs5,1,0x000),
    DN(___,0,0xC00),
    DN(Fs5,1,0xC05),
    DN(___,0,0x000),
    DN(D_5,1,0x000),
    DN(___,0,0xC00),
    DN(D_5,1,0xC05),
    DN(___,0,0x000),
    DN(D_5,1,0x000),
    DN(___,0,0xC00),
    DN(D_5,1,0xC05),
    DN(___,0,0x000),
};
static const unsigned char P46[] = {
    DN(B_4,1,0xC0F),
    DN(D_5,1,0xC0D),
    DN(Fs5,2,0xC0B),
    DN(B_4,2,0xC0F),
    DN(D_5,3,0xC0D),
    DN(Fs5,3,0xC0B),
    DN(B_4,1,0xC0F),
    DN(D_5,1,0xC0D),
    DN(Fs5,2,0xC0B),
    DN(B_4,2,0xC09),
    DN(D_5,3,0xC07),
    DN(Fs5,3,0xC06),
    DN(B_4,4,0xC0F),
    DN(D_5,4,0xC0D),
    DN(Fs5,3,0xC0B),
    DN(B_4,3,0xC09),
    DN(D_5,2,0xC0F),
    DN(Fs5,2,0xC0D),
    DN(B_4,1,0xC0B),
    DN(D_5,1,0xC0F),
    DN(Fs5,2,0xC0D),
    DN(B_4,2,0xC0B),
    DN(D_5,2,0xC0F),
    DN(Fs5,1,0xC0D),
    DN(B_4,1,0xC0B),
    DN(D_5,2,0xC09),
    DN(Fs5,2,0xC07),
    DN(B_4,3,0xC06),
    DN(D_5,3,0xC0F),
    DN(Fs5,4,0xC0D),
    DN(B_4,4,0xC0B),
    DN(D_5,3,0xC09),
    DN(B_4,1,0xC0F),
    DN(E_5,1,0xC0D),
    DN(G_5,2,0xC0B),
    DN(B_4,2,0xC09),
    DN(E_5,3,0xC0F),
    DN(G_5,3,0xC0D),
    DN(B_4,1,0xC0B),
    DN(E_5,1,0xC09),
    DN(G_5,2,0xC0F),
    DN(B_4,2,0xC0D),
    DN(E_5,3,0xC0B),
    DN(G_5,3,0xC09),
    DN(A_4,4,0xC07),
    DN(D_5,4,0xC06),
    DN(Fs5,3,0xC05),
    DN(A_4,3,0xC04),
    DN(D_5,2,0xC0F),
    DN(Fs5,2,0xC0D),
    DN(A_4,1,0xC0B),
    DN(A_4,1,0xC09),
    DN(D_5,2,0xC07),
    DN(Fs5,2,0xC06),
    DN(A_4,2,0xC05),
    DN(D_5,1,0xC04),
    DN(Fs5,1,0xC0F),
    DN(A_4,2,0xC0D),
    DN(A_4,2,0xC0B),
    DN(D_5,3,0xC09),
    DN(Fs5,3,0xC07),
    DN(A_4,4,0xC06),
    DN(D_5,4,0xC05),
    DN(Fs5,3,0xC04),
};
static const unsigned char P47[] = {
    DN(C_6,3,0x2CC),
    DN(B_3,5,0x000),
    DN(___,0,0x000),
    DN(___,0,0x000),
    DN(B_3,5,0x000),
    DN(___,0,0x000),
    DN(___,0,0x000),
    DN(___,0,0x000),
    DN(B_3,5,0x000),
    DN(___,0,0x000),
    DN(___,0,0x000),
    DN(___,0,0x000),
    DN(C_6,3,0x2CC),
    DN(B_3,5,0x000),
    DN(___,0,0x000),
    DN(___,0,0x000),
    DN(B_3,5,0x000),
    DN(___,0,0x000),
    DN(___,0,0x000),
    DN(___,0,0x000),
    DN(C_6,3,0x2CC),
    DN(B_3,5,0x000),
    DN(___,0,0x000),
    DN(___,0,0x000),
    DN(B_3,5,0x000),
    DN(___,0,0x000),
    DN(___,0,0x000),
    DN(___,0,0x000),
    DN(C_6,3,0x2CC),
    DN(B_3,5,0x000),
    DN(___,0,0x000),
    DN(___,0,0x000),
    DN(C_6,3,0x2CC),
    DN(E_4,5,0x000),
    DN(___,0,0x000),
    DN(___,0,0x000),
    DN(E_4,5,0x000),
    DN(___,0,0x000),
    DN(___,0,0x000),
    DN(___,0,0x000),
    DN(E_4,5,0x000),
    DN(___,0,0x000),
    DN(___,0,0x000),
    DN(___,0,0x000),
    DN(C_6,3,0x2CC),
    DN(D_4,5,0x000),
    DN(___,0,0x000),
    DN(___,0,0x000),
    DN(D_4,5,0x000),
    DN(___,0,0x000),
    DN(___,0,0x000),
    DN(___,0,0x000),
    DN(C_6,3,0x2CC),
    DN(D_4,5,0x000),
    DN(___,0,0x000),
    DN(___,0,0x000),
    DN(D_4,5,0x000),
    DN(___,0,0x000),
    DN(___,0,0x000),
    DN(___,0,0x000),
    DN(C_6,3,0x2CC),
    DN(D_4,5,0x000),
    DN(___,0,0x000),
    DN(___,0,0x000),
};
static const unsigned char P48[] = {
    DN(B_4,1,0x108),
    DN(C_5,1,0x310),
    DN(___,0,0x442),
    DN(___,0,0x442),
    DN(___,0,0x442),
    DN(___,0,0x442),
    DN(___,0,0x442),
    DN(___,0,0x442),
    DN(___,0,0x442),
    DN(___,0,0x442),
    DN(___,0,0x442),
    DN(___,0,0x442),
    DN(___,0,0x442),
    DN(___,0,0x442),
    DN(___,0,0x442),
    DN(___,0,0x442),
    DN(___,0,0x442),
    DN(___,0,0x442),
    DN(___,0,0x442),
    DN(___,0,0x442),
    DN(___,0,0x442),
    DN(___,0,0x442),
    DN(___,0,0x442),
    DN(___,0,0x442),
    DN(___,0,0x442),
    DN(___,0,0x442),
    DN(___,0,0x442),
    DN(___,0,0x442),
    DN(___,0,0x442),
    DN(___,0,0x442),
    DN(___,0,0x442),
    DN(___,0,0x442),
    DN(A_4,1,0x310),
    DN(___,0,0x310),
    DN(___,0,0x310),
    DN(___,0,0x310),
    DN(___,0,0x442),
    DN(___,0,0x442),
    DN(___,0,0x442),
    DN(___,0,0x442),
    DN(___,0,0x442),
    DN(___,0,0x442),
    DN(___,0,0x442),
    DN(___,0,0x442),
    DN(___,0,0x442),
    DN(___,0,0x442),
    DN(___,0,0x442),
    DN(___,0,0x442),
    DN(___,0,0x442),
    DN(___,0,0x442),
    DN(___,0,0x442),
    DN(___,0,0x442),
    DN(___,0,0x442),
    DN(___,0,0x442),
    DN(___,0,0x442),
    DN(___,0,0x442),
    DN(D_4,1,0x442),
    DN(___,0,0x442),
    DN(___,0,0x442),
    DN(___,0,0x442),
    DN(___,0,0x442),
    DN(___,0,0x442),
    DN(___,0,0x442),
    DN(___,0,0x442),
};
static const unsigned char P49[] = {
    DN(B_3,1,0x108),
    DN(C_4,1,0x310),
    DN(___,0,0x000),
    DN(___,0,0x000),
    DN(___,0,0x442),
    DN(___,0,0x442),
    DN(___,0,0x442),
    DN(___,0,0x442),
    DN(___,0,0x442),
    DN(___,0,0x442),
    DN(___,0,0x442),
    DN(___,0,0x442),
    DN(___,0,0x442),
    DN(___,0,0x442),
    DN(___,0,0x442),
    DN(___,0,0x442),
    DN(___,0,0x442),
    DN(___,0,0x442),
    DN(___,0,0x442),
    DN(___,0,0x442),
    DN(___,0,0x442),
    DN(___,0,0x442),
    DN(___,0,0x442),
    DN(___,0,0x442),
    DN(B_3,1,0x000),
    DN(___,0,0x000),
    DN(___,0,0x000),
    DN(___,0,0x000),
    DN(___,0,0x000),
    DN(___,0,0x000),
    DN(___,0,0x000),
    DN(___,0,0x000),
    DN(___,0,0x442),
    DN(___,0,0x442),
    DN(___,0,0x442),
    DN(___,0,0x442),
    DN(___,0,0x442),
    DN(___,0,0x442),
    DN(___,0,0x442),
    DN(___,0,0x442),
    DN(___,0,0x442),
    DN(___,0,0x442),
    DN(___,0,0x442),
    DN(___,0,0x442),
    DN(___,0,0x442),
    DN(___,0,0x442),
    DN(___,0,0x442),
    DN(___,0,0x442),
    DN(___,0,0x442),
    DN(___,0,0x442),
    DN(___,0,0x442),
    DN(___,0,0x442),
    DN(___,0,0x442),
    DN(___,0,0x442),
    DN(___,0,0x442),
    DN(___,0,0x442),
    DN(___,0,0x442),
    DN(___,0,0x442),
    DN(___,0,0x442),
    DN(___,0,0x442),
    DN(___,0,0x442),
    DN(___,0,0x442),
    DN(___,0,0x442),
    DN(___,0,0x442),
};
static const unsigned char P50[] = {
    DN(B_4,1,0xC0F),
    DN(E_5,1,0xC0D),
    DN(G_5,2,0xC0B),
    DN(B_4,2,0xC0F),
    DN(E_5,3,0xC0D),
    DN(G_5,3,0xC0B),
    DN(B_4,4,0xC0F),
    DN(E_5,4,0xC0D),
    DN(G_5,3,0xC0B),
    DN(B_4,3,0xC09),
    DN(E_5,2,0xC07),
    DN(G_5,2,0xC06),
    DN(B_4,1,0xC0F),
    DN(E_5,1,0xC0D),
    DN(G_5,2,0xC0B),
    DN(B_4,2,0xC09),
    DN(B_4,1,0xC0F),
    DN(E_5,1,0xC0D),
    DN(G_5,2,0xC0B),
    DN(B_4,2,0xC0F),
    DN(E_5,3,0xC0D),
    DN(G_5,3,0xC0B),
    DN(B_4,4,0xC0F),
    DN(E_5,4,0xC0D),
    DN(G_5,3,0xC0B),
    DN(B_4,3,0xC09),
    DN(E_5,2,0xC07),
    DN(G_5,2,0xC06),
    DN(B_4,1,0xC0F),
    DN(E_5,1,0xC0D),
    DN(G_5,2,0xC0B),
    DN(B_4,2,0xC09),
    DN(B_4,1,0xC0F),
    DN(E_5,1,0xC0D),
    DN(G_5,2,0xC0B),
    DN(B_4,2,0xC0F),
    DN(E_5,3,0xC0D),
    DN(G_5,3,0xC0B),
    DN(B_4,4,0xC0F),
    DN(E_5,4,0xC0D),
    DN(G_5,3,0xC0B),
    DN(B_4,3,0xC09),
    DN(E_5,2,0xC07),
    DN(G_5,2,0xC06),
    DN(B_4,1,0xC0F),
    DN(E_5,1,0xC0D),
    DN(G_5,2,0xC0B),
    DN(B_4,2,0xC09),
    DN(B_4,1,0xC0F),
    DN(E_5,1,0xC0D),
    DN(G_5,2,0xC0B),
    DN(B_4,2,0xC0F),
    DN(E_5,3,0xC0D),
    DN(G_5,3,0xC0B),
    DN(B_4,4,0xC0F),
    DN(E_5,4,0xC0D),
    DN(G_5,3,0xC0B),
    DN(B_4,3,0xC09),
    DN(E_5,2,0xC07),
    DN(G_5,2,0xC06),
    DN(B_4,1,0xC0F),
    DN(E_5,1,0xC0D),
    DN(G_5,2,0xC0B),
    DN(B_4,2,0xC09),
};
static const unsigned char P51[] = {
    DN(C_6,3,0x2CC),
    DN(E_3,5,0x000),
    DN(___,0,0x000),
    DN(___,0,0x000),
    DN(___,0,0x000),
    DN(___,0,0x000),
    DN(___,0,0x000),
    DN(___,0,0x000),
    DN(___,0,0x000),
    DN(___,0,0x000),
    DN(___,0,0x000),
    DN(___,0,0x000),
    DN(___,0,0x000),
    DN(___,0,0x000),
    DN(___,0,0x000),
    DN(___,0,0x000),
    DN(___,0,0x000),
    DN(___,0,0x000),
    DN(___,0,0x000),
    DN(___,0,0x000),
    DN(___,0,0x000),
    DN(___,0,0x000),
    DN(___,0,0x000),
    DN(___,0,0x000),
    DN(___,0,0x000),
    DN(___,0,0x000),
    DN(___,0,0x000),
    DN(___,0,0x000),
    DN(___,0,0x000),
    DN(___,0,0x000),
    DN(___,0,0x000),
    DN(___,0,0x000),
    DN(___,0,0x000),
    DN(___,0,0x000),
    DN(___,0,0x000),
    DN(___,0,0x000),
    DN(___,0,0x000),
    DN(___,0,0x000),
    DN(___,0,0x000),
    DN(___,0,0x000),
    DN(___,0,0x000),
    DN(___,0,0x000),
    DN(___,0,0x000),
    DN(___,0,0x000),
    DN(___,0,0x000),
    DN(___,0,0x000),
    DN(___,0,0x000),
    DN(___,0,0x000),
    DN(___,0,0x000),
    DN(___,0,0x000),
    DN(___,0,0x000),
    DN(___,0,0x000),
    DN(___,0,0x000),
    DN(___,0,0x000),
    DN(___,0,0x000),
    DN(___,0,0x000),
    DN(___,0,0x000),
    DN(___,0,0x000),
    DN(___,0,0x000),
    DN(___,0,0x000),
    DN(___,0,0x000),
    DN(___,0,0x000),
    DN(___,0,0x000),
    DN(___,0,0x000),
};
static const unsigned char P52[] = {
    DN(C_6,6,0x000),
    DN(C_7,6,0x000),
    DN(C_8,6,0x000),
    DN(___,0,0x000),
    DN(___,0,0x000),
    DN(___,0,0x000),
    DN(___,0,0x000),
    DN(___,0,0x000),
    DN(___,0,0x000),
    DN(___,0,0x000),
    DN(___,0,0x000),
    DN(___,0,0x000),
    DN(___,0,0x000),
    DN(___,0,0x000),
    DN(___,0,0x000),
    DN(___,0,0x000),
    DN(___,0,0x000),
    DN(___,0,0x000),
    DN(___,0,0x000),
    DN(___,0,0x000),
    DN(___,0,0x000),
    DN(___,0,0x000),
    DN(___,0,0x000),
    DN(___,0,0x000),
    DN(___,0,0x000),
    DN(___,0,0x000),
    DN(___,0,0x000),
    DN(___,0,0x000),
    DN(___,0,0x000),
    DN(___,0,0x000),
    DN(___,0,0x000),
    DN(___,0,0x000),
    DN(___,0,0x000),
    DN(___,0,0x000),
    DN(___,0,0x000),
    DN(___,0,0x000),
    DN(___,0,0x000),
    DN(___,0,0x000),
    DN(___,0,0x000),
    DN(___,0,0x000),
    DN(___,0,0x000),
    DN(___,0,0x000),
    DN(___,0,0x000),
    DN(___,0,0x000),
    DN(___,0,0x000),
    DN(___,0,0x000),
    DN(___,0,0x000),
    DN(___,0,0x000),
    DN(___,0,0x000),
    DN(___,0,0x000),
    DN(___,0,0x000),
    DN(___,0,0x000),
    DN(___,0,0x000),
    DN(___,0,0x000),
    DN(___,0,0x000),
    DN(___,0,0x000),
    DN(___,0,0x000),
    DN(___,0,0x000),
    DN(___,0,0x000),
    DN(___,0,0x000),
    DN(C_5,2,0x000),
    DN(___,0,0x000),
    DN(___,0,0x000),
    DN(___,0,0x000),
};

static const unsigned char itNoiseSP1[] = {
    DN(71,0,0x000),
    DN(___,0,0x000),
    DN(___,0,0x000),
    DN(___,0,0x000),
    DN(___,0,0x000),
    DN(___,0,0x000),
    DN(___,0,0x000),
    DN(___,0,0x000),
    DN(___,0,0x000),
    DN(___,0,0x000),
    DN(___,0,0x000),
    DN(___,0,0x000),
    DN(___,0,0x000),
    DN(___,0,0x000),
    DN(___,0,0x000),
    DN(___,0,0x000),
    DN(___,0,0x000),
    DN(___,0,0x000),
    DN(___,0,0x000),
    DN(___,0,0x000),
    DN(___,0,0x000),
    DN(___,0,0x000),
    DN(___,0,0x000),
    DN(___,0,0x000),
    DN(___,0,0x000),
    DN(___,0,0x000),
    DN(___,0,0x000),
    DN(___,0,0x000),
    DN(___,0,0x000),
    DN(___,0,0x000),
    DN(___,0,0x000),
    DN(___,1,0x000),
};
static const unsigned char itNoiseSP2[] = {
    DN(71,0,0x000),
    DN(___,0,0x000),
    DN(___,0,0x000),
    DN(___,0,0x000),
    DN(___,0,0x000),
    DN(___,0,0x000),
    DN(___,0,0x000),
    DN(___,0,0x000),
    DN(___,0,0x000),
    DN(___,0,0x000),
    DN(___,0,0x000),
    DN(___,0,0x000),
    DN(___,0,0x000),
    DN(___,0,0x000),
    DN(___,0,0x000),
    DN(___,0,0x000),
    DN(___,0,0x000),
    DN(___,0,0x000),
    DN(___,0,0x000),
    DN(___,0,0x000),
    DN(___,0,0x000),
    DN(___,0,0x000),
    DN(___,0,0x000),
    DN(___,0,0x000),
    DN(___,0,0x000),
    DN(___,0,0x000),
    DN(___,0,0x000),
    DN(___,0,0x000),
    DN(___,0,0x000),
    DN(___,0,0x000),
    DN(___,0,0x000),
    DN(___,1,0x000),
};
static const unsigned char itNoiseSP3[] = {
    DN(71,0,0x000),
    DN(48,0,0x000),
    DN(45,0,0x000),
    DN(60,0,0x000),
    DN(___,0,0x000),
    DN(___,0,0x000),
    DN(___,0,0x000),
    DN(___,0,0x000),
    DN(___,0,0x000),
    DN(___,0,0x000),
    DN(___,0,0x000),
    DN(___,0,0x000),
    DN(___,0,0x000),
    DN(___,0,0x000),
    DN(___,0,0x000),
    DN(___,0,0x000),
    DN(___,0,0x000),
    DN(___,0,0x000),
    DN(___,0,0x000),
    DN(___,0,0x000),
    DN(___,0,0x000),
    DN(___,0,0x000),
    DN(___,0,0x000),
    DN(___,0,0x000),
    DN(___,0,0x000),
    DN(___,0,0x000),
    DN(___,0,0x000),
    DN(___,0,0x000),
    DN(___,0,0x000),
    DN(___,0,0x000),
    DN(___,0,0x000),
    DN(___,1,0x000),
};
static const unsigned char itNoiseSP4[] = {
    DN(71,0,0x000),
    DN(48,0,0x000),
    DN(43,0,0x000),
    DN(36,0,0x000),
    DN(31,0,0x000),
    DN(36,0,0x000),
    DN(___,0,0x000),
    DN(___,0,0x000),
    DN(___,0,0x000),
    DN(___,0,0x000),
    DN(___,0,0x000),
    DN(___,0,0x000),
    DN(___,0,0x000),
    DN(___,0,0x000),
    DN(___,0,0x000),
    DN(___,0,0x000),
    DN(___,0,0x000),
    DN(___,0,0x000),
    DN(___,0,0x000),
    DN(___,0,0x000),
    DN(___,0,0x000),
    DN(___,0,0x000),
    DN(___,0,0x000),
    DN(___,0,0x000),
    DN(___,0,0x000),
    DN(___,0,0x000),
    DN(___,0,0x000),
    DN(___,0,0x000),
    DN(___,0,0x000),
    DN(___,0,0x000),
    DN(___,0,0x000),
    DN(___,1,0x000),
};
static const unsigned char itNoiseSP5[] = {
    DN(48,0,0x000),
    DN(60,0,0x000),
    DN(71,0,0x000),
    DN(___,0,0x000),
    DN(___,0,0x000),
    DN(___,0,0x000),
    DN(___,0,0x000),
    DN(___,0,0x000),
    DN(___,0,0x000),
    DN(___,0,0x000),
    DN(___,0,0x000),
    DN(___,0,0x000),
    DN(___,0,0x000),
    DN(___,0,0x000),
    DN(___,0,0x000),
    DN(___,0,0x000),
    DN(___,0,0x000),
    DN(___,0,0x000),
    DN(___,0,0x000),
    DN(___,0,0x000),
    DN(___,0,0x000),
    DN(___,0,0x000),
    DN(___,0,0x000),
    DN(___,0,0x000),
    DN(___,0,0x000),
    DN(___,0,0x000),
    DN(___,0,0x000),
    DN(___,0,0x000),
    DN(___,0,0x000),
    DN(___,0,0x000),
    DN(___,0,0x000),
    DN(___,1,0x000),
};
static const unsigned char itNoiseSP6[] = {
    DN(___,0,0x000),
    DN(___,0,0x000),
    DN(___,0,0x000),
    DN(___,0,0x000),
    DN(___,0,0x000),
    DN(___,0,0x000),
    DN(___,0,0x000),
    DN(___,0,0x000),
    DN(___,0,0x000),
    DN(___,0,0x000),
    DN(___,0,0x000),
    DN(___,0,0x000),
    DN(___,0,0x000),
    DN(___,0,0x000),
    DN(___,0,0x000),
    DN(___,0,0x000),
    DN(___,0,0x000),
    DN(___,0,0x000),
    DN(___,0,0x000),
    DN(___,0,0x000),
    DN(___,0,0x000),
    DN(___,0,0x000),
    DN(___,0,0x000),
    DN(___,0,0x000),
    DN(___,0,0x000),
    DN(___,0,0x000),
    DN(___,0,0x000),
    DN(___,0,0x000),
    DN(___,0,0x000),
    DN(___,0,0x000),
    DN(___,0,0x000),
    DN(___,1,0x000),
};
static const unsigned char* const order1[] = {P0,P4,P8,P10,P12,P16,P20,P16,P21,P24,P28,P29,P28,P29,P30,P31,P30,P31,P38,P39,P42,P45,P48,P49};
static const unsigned char* const order2[] = {P1,P5,P9,P5,P13,P17,P13,P17,P22,P25,P32,P33,P34,P35,P36,P37,P36,P37,P1,P1,P43,P46,P43,P50};
static const unsigned char* const order3[] = {P2,P6,P2,P11,P14,P18,P14,P18,P23,P26,P14,P18,P14,P18,P23,P26,P23,P26,P41,P41,P44,P47,P44,P51};
static const unsigned char* const order4[] = {P3,P3,P3,P7,P15,P19,P15,P19,P15,P27,P15,P19,P15,P19,P15,P19,P15,P27,P40,P40,P40,P40,P40,P52};

static const hUGEDutyInstr_t duty_instruments[] = {
    {8,0,240,0,128},
    {8,64,240,0,128},
    {8,128,240,0,128},
    {8,192,240,0,128},
    {8,0,241,0,128},
    {8,64,241,0,128},
    {8,128,241,0,128},
    {8,192,241,0,128},
    {8,128,240,0,128},
    {8,128,240,0,128},
    {8,128,240,0,128},
    {8,128,240,0,128},
    {8,128,240,0,128},
    {8,128,240,0,128},
    {8,128,240,0,128},
};
static const hUGEWaveInstr_t wave_instruments[] = {
    {0,32,0,0,128},
    {0,32,1,0,128},
    {0,32,2,0,128},
    {0,32,3,0,128},
    {0,32,4,0,128},
    {0,32,5,0,128},
    {0,32,6,0,128},
    {0,32,7,0,128},
    {0,32,8,0,128},
    {0,32,9,0,128},
    {0,32,10,0,128},
    {0,32,11,0,128},
    {0,32,12,0,128},
    {0,32,13,0,128},
    {0,32,14,0,128},
};
static const hUGENoiseInstr_t noise_instruments[] = {
    {114,itNoiseSP1,110,0,0},
    {115,itNoiseSP2,0,0,0},
    {241,itNoiseSP3,27,0,0},
    {241,itNoiseSP4,99,0,0},
    {242,itNoiseSP5,0,0,0},
    {246,itNoiseSP6,0,0,0},
    {240,0,0,0,0},
    {240,0,0,0,0},
    {240,0,0,0,0},
    {240,0,0,0,0},
    {240,0,0,0,0},
    {240,0,0,0,0},
    {240,0,0,0,0},
    {240,0,0,0,0},
    {240,0,0,0,0},
};

static const unsigned char waves[] = {
    0,0,255,255,255,255,255,255,255,255,255,255,255,255,255,255,
    0,0,0,0,255,255,255,255,255,255,255,255,255,255,255,255,
    0,0,0,0,0,0,0,0,255,255,255,255,255,255,255,255,
    0,0,0,0,0,0,0,0,0,0,0,0,255,255,255,255,
    0,1,18,35,52,69,86,103,120,137,154,171,188,205,222,239,
    254,220,186,152,118,84,50,16,18,52,86,120,154,188,222,255,
    122,205,219,117,33,19,104,189,220,151,65,1,71,156,221,184,
    15,15,15,15,15,15,15,15,15,15,15,15,15,15,15,15,
    254,252,250,248,246,244,242,240,242,244,246,248,250,252,254,255,
    254,221,204,187,170,153,136,119,138,189,241,36,87,138,189,238,
    132,17,97,237,87,71,90,173,206,163,23,121,221,32,3,71,
    102,171,30,52,33,131,217,212,25,210,190,77,139,168,57,182,
    71,234,142,14,52,13,72,107,57,86,39,59,57,5,58,115,
    92,180,130,187,51,90,54,103,125,46,151,64,164,224,73,136,
    49,188,70,182,119,116,232,9,136,25,228,48,3,21,228,6,
    38,167,166,112,193,173,98,108,78,102,121,29,30,150,97,171,
};

const hUGESong_t Stage1 = {3, &order_cnt, order1, order2, order3,order4, duty_instruments, wave_instruments, noise_instruments, NULL, waves};
